<?xml version="1.0" standalone="no"?>
<!DOCTYPE svg PUBLIC "-//W3C//DTD SVG 20010904//EN"
 "http://www.w3.org/TR/2001/REC-SVG-20010904/DTD/svg10.dtd">
<svg version="1.0" xmlns="http://www.w3.org/2000/svg"
 width="960.000000pt" height="960.000000pt" viewBox="0 0 960.000000 960.000000"
 preserveAspectRatio="xMidYMid meet">
<metadata>
Created by potrace 1.11, written by Peter Selinger 2001-2013
</metadata>
<g transform="translate(0.000000,960.000000) scale(0.100000,-0.100000)"
fill="#000000" stroke="none">
<path d="M3766 8278 c-3 -7 -7 -25 -10 -40 -8 -34 -27 -35 -66 -6 -30 21 -31
22 -78 5 -26 -9 -58 -17 -72 -17 -14 -1 -41 -9 -60 -20 l-35 -18 -63 34 c-78
42 -128 45 -161 10 -12 -13 -23 -38 -24 -57 -2 -28 2 -34 23 -39 45 -9 60 -24
64 -65 2 -22 12 -61 22 -87 17 -43 17 -48 1 -72 -22 -33 -94 -54 -175 -51 -51
2 -77 9 -133 39 -39 20 -80 36 -93 36 -42 0 -91 -66 -115 -158 -18 -65 -10
-77 72 -102 40 -12 84 -31 99 -41 32 -22 49 -24 143 -14 107 11 162 7 218 -16
39 -17 33 -37 -15 -49 -99 -25 -141 -63 -72 -66 16 -1 37 -2 48 -3 10 -1 33
-17 51 -37 28 -30 41 -36 78 -38 30 -1 59 -11 88 -30 56 -37 107 -38 178 -3
30 15 66 28 80 29 38 3 88 -31 107 -71 20 -42 13 -56 -47 -90 -24 -13 -50 -30
-57 -38 -16 -16 -7 -17 -70 7 l-53 20 -29 -20 c-15 -11 -33 -33 -38 -50 -13
-35 -15 -34 90 -31 63 2 67 1 89 -28 12 -17 42 -40 66 -51 23 -11 43 -26 43
-33 0 -12 -65 -77 -77 -77 -4 0 -14 -6 -22 -14 -51 -44 -220 -113 -266 -108
-5 1 -27 3 -47 4 -20 2 -43 9 -50 16 -14 14 -12 75 2 103 17 31 -8 68 -49 75
-93 17 -161 60 -161 101 0 32 -30 88 -79 151 -53 66 -197 212 -211 212 -6 0
-10 -28 -11 -67 -1 -114 -9 -135 -46 -131 -44 6 -72 25 -162 112 -101 98 -95
93 -151 137 -65 52 -98 65 -160 64 -30 -1 -66 2 -79 7 -17 6 -35 2 -68 -14
-44 -22 -45 -22 -59 -4 -7 11 -12 22 -9 25 2 4 -4 12 -13 18 -15 9 -22 3 -47
-33 -17 -25 -37 -43 -45 -42 -8 1 -30 -6 -49 -16 -19 -10 -43 -15 -56 -12 -17
4 -25 1 -29 -11 -9 -30 -18 -86 -21 -131 -2 -23 -10 -53 -19 -67 -15 -23 -19
-24 -128 -22 -131 2 -162 -10 -212 -81 -27 -38 -30 -49 -32 -137 -3 -106 -16
-135 -62 -135 -59 0 -119 54 -98 89 11 17 -16 61 -41 67 -32 8 -97 -32 -161
-101 -56 -60 -116 -157 -110 -177 3 -7 21 -13 42 -14 109 -6 146 -19 186 -65
31 -34 65 -48 110 -43 92 9 151 6 169 -10 10 -9 29 -16 43 -16 40 0 139 55
197 111 60 57 113 84 181 93 25 3 55 8 66 10 42 8 76 -48 86 -139 2 -22 11
-34 35 -46 56 -28 64 -39 58 -77 -10 -61 -23 -68 -150 -77 -251 -18 -268 -24
-194 -73 114 -75 111 -85 -42 -116 -53 -11 -97 -27 -114 -40 -27 -22 -28 -23
-11 -57 20 -41 118 -117 205 -158 64 -30 69 -30 131 -4 8 3 17 7 20 8 3 1 39
18 80 38 110 55 118 53 184 -46 30 -46 80 -105 111 -131 63 -54 75 -84 50
-122 -29 -45 -69 -85 -98 -100 -56 -29 -152 -16 -227 31 -33 21 -85 41 -126
49 -10 3 -30 9 -44 14 -51 19 -112 -6 -136 -56 -9 -20 -25 -68 -35 -107 -13
-48 -26 -77 -44 -92 -25 -22 -27 -22 -58 -7 -18 10 -48 30 -67 45 -28 24 -44
29 -88 29 -73 0 -113 20 -156 76 -20 27 -42 57 -49 66 -25 33 -57 36 -106 11
-112 -57 -145 -41 -149 73 -3 84 -17 103 -61 85 -16 -7 -32 -19 -35 -27 -3 -8
-12 -14 -21 -14 -8 0 -15 -4 -15 -10 0 -5 -11 -10 -24 -10 -14 0 -28 5 -31 10
-10 16 -46 11 -105 -15 -51 -22 -56 -23 -67 -7 -41 57 -38 55 -74 43 -43 -14
-108 -66 -119 -97 -5 -12 -10 -48 -11 -79 -3 -63 -13 -82 -49 -88 -42 -7 -60
-18 -75 -47 -8 -16 -21 -34 -28 -42 -32 -31 -45 -65 -43 -106 1 -27 -4 -52
-16 -70 -23 -35 -24 -100 -1 -109 11 -4 21 0 27 12 6 10 21 29 32 43 l21 26
19 -34 c27 -53 25 -81 -8 -112 -17 -16 -38 -28 -47 -29 -9 -1 -28 -2 -43 -3
-38 -4 -62 16 -89 69 -29 59 -58 67 -65 19 -5 -32 -41 -88 -81 -126 -80 -76
-82 -79 -74 -101 17 -46 40 -49 131 -16 116 42 142 46 158 20 16 -27 24 -79
26 -166 2 -82 16 -112 54 -121 62 -14 99 -28 127 -49 29 -21 86 -42 110 -40 6
0 20 6 33 14 18 9 22 19 20 43 -2 17 -10 34 -18 38 -71 32 -94 48 -96 63 -3
26 -8 29 -46 34 -52 6 -62 8 -75 16 -18 11 -16 32 3 51 13 14 19 14 43 2 17
-9 66 -16 130 -17 56 -2 105 -7 107 -11 3 -5 9 -6 13 -3 5 2 24 -12 42 -32 86
-93 101 -103 147 -103 68 0 81 -11 77 -67 -2 -27 -9 -63 -14 -82 -19 -64 6
-65 39 -1 19 37 62 70 93 70 21 0 36 -38 43 -110 11 -117 11 -117 -31 -134
-34 -14 -46 -37 -49 -90 -2 -24 16 -46 36 -46 7 0 30 12 51 26 52 35 103 55
122 48 9 -4 27 -28 40 -54 27 -53 38 -60 98 -60 37 0 46 6 92 54 37 40 64 59
100 71 28 8 58 20 67 25 10 6 22 10 28 10 6 0 23 11 38 25 36 33 90 58 124 57
37 -1 108 -34 138 -64 14 -14 44 -38 68 -53 43 -28 45 -28 104 -16 71 15 82 7
72 -49 -6 -36 -41 -83 -55 -75 -4 3 -10 1 -13 -4 -4 -6 -67 -8 -154 -5 -81 3
-166 5 -189 6 -47 0 -97 -24 -120 -59 -14 -22 -13 -23 40 -48 62 -30 78 -53
50 -72 -10 -7 -37 -31 -59 -54 -51 -50 -74 -52 -136 -10 -70 47 -111 34 -144
-46 -23 -55 -26 -81 -13 -122 35 -108 170 -155 318 -109 120 38 182 24 220
-51 16 -30 34 -45 83 -69 35 -17 80 -36 101 -42 26 -8 41 -20 49 -38 29 -76
13 -85 -68 -41 -32 18 -64 35 -69 40 -16 12 -39 6 -81 -22 -90 -60 -95 -61
-180 -64 -114 -3 -144 -31 -89 -84 39 -36 33 -73 -15 -100 -44 -24 -60 -47
-67 -95 -6 -47 -24 -99 -40 -114 -20 -20 -12 -71 14 -92 19 -15 44 -18 157
-18 124 -1 216 -14 216 -32 0 -4 13 -13 30 -20 29 -12 97 -10 212 6 63 9 98
-1 98 -27 0 -11 -19 -47 -42 -80 -40 -56 -41 -60 -25 -77 16 -15 43 -17 250
-18 246 0 276 -5 294 -48 10 -22 9 -34 -1 -108 -8 -56 10 -82 47 -69 25 9 90
89 82 101 -3 5 -1 11 4 14 12 8 5 55 -17 111 l-19 48 22 33 c16 24 21 44 19
71 -5 45 6 61 66 95 70 41 142 55 255 51 55 -2 107 -4 116 -6 35 -6 49 -29 49
-77 0 -26 6 -52 13 -58 10 -8 72 -10 72 -2 0 2 25 4 55 4 67 2 80 9 80 42 0
32 -17 64 -47 87 -12 10 -23 26 -23 36 0 19 38 58 85 87 39 24 46 34 35 54
-16 29 13 64 80 97 94 47 186 64 275 49 35 -6 69 -14 73 -16 1 -2 5 -3 10 -4
22 -6 116 -56 176 -95 110 -70 141 -107 161 -196 11 -47 12 -217 2 -260 -3
-11 -8 -42 -11 -69 -4 -27 -9 -53 -11 -56 -2 -4 -7 -22 -10 -41 -3 -19 -8 -42
-11 -51 -3 -9 -7 -25 -9 -35 -10 -51 -64 -171 -123 -276 -94 -166 -92 -163
-150 -224 -67 -69 -179 -111 -342 -129 -25 -2 -58 -6 -75 -9 -16 -2 -61 -7
-100 -10 -38 -4 -81 -8 -95 -11 -14 -2 -61 -8 -105 -14 -120 -16 -149 -20
-165 -25 -8 -2 -37 -6 -65 -10 -27 -3 -59 -8 -70 -10 -11 -3 -31 -7 -45 -9
-14 -3 -59 -12 -100 -20 -41 -8 -86 -17 -100 -19 -14 -3 -45 -10 -70 -17 -25
-7 -56 -14 -70 -17 -14 -2 -43 -9 -65 -15 -22 -5 -47 -12 -55 -14 -28 -6 -165
-45 -180 -51 -8 -3 -19 -7 -25 -8 -15 -4 -198 -65 -215 -72 -8 -3 -17 -7 -20
-8 -3 -1 -18 -7 -35 -14 -16 -7 -34 -14 -40 -16 -48 -13 -315 -142 -350 -169
-13 -10 6 -6 50 10 39 14 113 39 165 56 52 17 102 33 110 36 8 3 20 6 27 8 7
1 34 9 60 18 26 8 59 17 73 20 14 3 48 12 77 20 28 9 71 20 95 25 24 5 103 23
176 40 73 17 145 33 160 36 15 3 38 7 52 10 14 3 36 7 50 10 14 3 36 7 50 11
14 3 36 7 50 9 14 1 52 8 85 14 33 6 76 13 95 16 19 3 49 8 65 12 17 4 33 6
37 5 4 -1 31 3 60 8 29 5 76 12 103 15 28 4 61 8 75 10 24 4 118 15 170 20 14
1 52 5 85 9 357 39 764 59 1180 58 283 0 446 -6 680 -27 33 -3 85 -7 115 -10
30 -3 73 -7 95 -9 22 -3 65 -8 95 -11 30 -4 69 -8 85 -10 17 -2 46 -6 65 -9
19 -2 51 -7 70 -10 19 -3 51 -8 70 -11 86 -10 127 -16 150 -22 14 -3 36 -7 50
-9 14 -2 41 -6 60 -9 19 -4 46 -9 60 -11 14 -3 61 -11 105 -20 44 -8 96 -17
115 -20 19 -3 38 -8 41 -10 4 -2 24 -6 45 -10 45 -7 126 -24 254 -54 145 -34
173 -40 195 -44 11 -2 56 -14 100 -26 44 -12 87 -23 95 -25 20 -5 200 -54 223
-60 9 -3 25 -7 35 -10 9 -2 55 -16 101 -30 47 -13 86 -23 88 -21 2 2 -27 16
-64 31 -37 14 -81 33 -98 40 -102 46 -433 158 -605 205 -63 17 -126 36 -140
41 -14 5 -54 15 -90 23 -36 8 -105 24 -155 36 -49 12 -101 24 -114 26 -12 3
-51 11 -85 19 -33 8 -77 17 -96 20 -70 12 -86 15 -140 25 -30 6 -71 13 -90 16
-19 2 -48 7 -65 11 -16 4 -39 7 -50 8 -11 1 -38 5 -60 9 -46 8 -246 36 -254
36 -17 0 -81 70 -95 104 -9 22 -54 77 -105 127 -53 53 -97 107 -110 135 -42
89 -32 223 29 366 16 38 27 68 23 68 -3 0 -1 6 4 12 6 7 20 39 32 71 11 32 28
69 37 82 9 14 13 25 10 25 -7 0 40 69 72 106 10 12 37 31 59 42 62 32 97 66
112 108 25 71 103 130 149 113 23 -9 61 -74 49 -85 -3 -4 -34 -8 -68 -9 -42
-2 -69 -9 -88 -22 -28 -21 -38 -63 -14 -63 24 0 88 -47 113 -83 28 -41 70 -57
138 -52 26 2 55 2 65 -1 24 -7 21 -42 -8 -89 -74 -120 28 -181 140 -83 45 39
46 40 66 22 30 -27 46 -25 70 11 13 18 42 42 66 54 28 13 43 27 43 40 0 31 38
71 69 71 67 0 104 -28 110 -82 0 -7 8 -2 17 10 19 27 55 29 78 3 27 -30 51
-31 92 -2 33 23 44 26 113 23 62 -2 85 2 126 20 28 13 52 26 55 29 3 3 21 11
41 18 36 12 69 7 69 -10 0 -6 4 -15 10 -22 62 -77 50 -71 146 -72 69 -1 99 4
134 20 25 11 48 25 52 30 4 6 8 7 8 3 0 -10 105 101 134 140 11 17 38 50 58
74 34 40 37 48 32 90 -9 95 -37 126 -97 110 -45 -13 -74 4 -97 56 -21 47 -49
67 -105 77 -50 8 -85 40 -85 76 0 35 16 40 123 43 l81 3 46 -48 c34 -35 56
-49 85 -54 22 -3 59 -11 82 -17 56 -14 90 -13 108 2 26 22 17 54 -23 85 -53
40 -86 90 -68 104 24 20 62 15 108 -12 38 -22 59 -27 112 -27 77 0 101 -8 144
-48 43 -40 60 -45 72 -22 6 10 6 21 1 24 -5 3 -11 17 -13 30 -6 31 30 72 85
96 37 17 44 17 91 3 62 -19 66 -19 104 -4 25 10 51 47 58 81 0 3 4 12 7 20 4
8 18 48 33 89 22 63 24 77 14 97 -16 29 -68 54 -113 54 -33 0 -36 4 -64 63
-17 34 -38 69 -47 77 -21 16 -86 21 -104 7 -20 -16 -128 -1 -166 22 -29 18
-67 81 -49 81 10 0 -30 41 -52 52 -17 10 -47 19 -105 32 -8 2 -36 6 -61 10
-125 18 -153 33 -172 90 -21 64 -53 81 -159 82 l-91 2 -35 36 c-67 72 -108 84
-174 51 -51 -26 -87 -65 -110 -117 -26 -62 -74 -82 -110 -46 -16 16 -19 29
-15 64 5 47 21 66 89 110 40 25 40 34 8 95 -9 15 -3 28 27 68 21 27 46 51 56
54 24 7 75 -45 75 -77 0 -40 25 -58 85 -57 28 1 61 3 72 5 103 21 165 18 165
-10 0 -8 11 -26 25 -40 27 -27 40 -27 133 7 89 32 127 24 243 -51 48 -31 65
-37 76 -29 7 6 13 17 13 23 0 7 15 38 34 69 l34 56 -35 22 c-56 35 -72 104
-28 115 64 16 177 -64 208 -146 22 -60 89 -103 162 -104 43 -1 57 4 95 34 25
19 47 37 50 41 13 16 52 29 85 29 36 0 104 25 116 43 3 5 9 8 13 7 3 0 21 2
39 5 17 3 60 8 95 9 63 4 88 16 120 59 18 24 58 21 129 -8 71 -29 113 -37 130
-27 15 10 17 50 8 183 -8 131 3 182 45 204 44 23 42 64 -5 89 -28 15 -38 29
-47 63 -12 50 -56 93 -94 93 -36 0 -62 -16 -122 -73 -49 -48 -54 -51 -81 -41
-22 9 -38 8 -67 -3 -22 -8 -50 -16 -63 -19 -14 -3 -28 -7 -32 -10 -26 -16
-142 72 -165 124 -8 20 -22 52 -30 70 -22 50 -41 51 -84 2 -46 -51 -65 -49
-80 12 -18 72 -27 87 -62 96 -50 13 -103 -5 -159 -56 -41 -37 -57 -45 -95 -47
-112 -7 -237 123 -188 194 15 20 61 22 73 3 15 -24 57 -31 83 -14 26 18 29 41
13 105 -7 25 -4 29 41 49 27 12 54 23 59 24 52 10 214 58 228 69 15 11 16 17
8 33 -14 26 -55 40 -122 40 -91 0 -98 1 -118 23 -11 12 -28 38 -37 58 -37 80
-65 89 -115 37 -39 -42 -68 -42 -134 -1 -50 32 -67 67 -42 92 20 20 87 24 115
7 28 -18 28 -18 77 50 31 43 48 57 75 63 19 4 40 6 45 4 6 -2 21 -5 35 -7 14
-2 48 -9 75 -15 69 -15 112 -21 166 -23 26 -1 57 -9 70 -18 20 -13 22 -18 11
-31 -7 -8 -31 -18 -53 -22 -32 -6 -43 -13 -56 -39 -14 -30 -14 -36 1 -64 20
-39 51 -42 91 -8 15 13 44 29 65 36 31 10 42 10 68 -4 22 -11 56 -16 119 -15
75 1 99 -3 153 -26 36 -14 76 -26 90 -27 30 0 191 86 204 110 28 47 15 75 -39
85 -82 14 -104 27 -141 80 -27 40 -59 51 -130 43 -96 -12 -125 -20 -176 -52
-55 -35 -88 -29 -98 19 -3 14 59 65 143 119 89 58 123 94 106 114 -6 7 -21 12
-32 11 -17 -1 -26 8 -41 39 -23 53 -44 62 -131 58 -72 -2 -72 -2 -173 53 -47
26 -71 22 -132 -27 -87 -69 -177 -72 -207 -8 -40 87 -58 120 -70 129 -18 15
-17 64 2 79 21 17 59 -9 85 -58 11 -20 26 -45 33 -54 15 -19 52 -24 61 -9 14
23 117 81 149 84 29 3 47 -3 86 -29 27 -19 52 -38 56 -44 11 -18 47 -11 74 14
79 72 91 86 91 104 0 17 -11 22 -65 31 -123 22 -145 44 -81 82 19 11 37 27 41
36 7 20 -24 52 -75 80 -21 12 -36 29 -38 42 -2 12 -12 31 -22 41 -35 35 -60
42 -121 36 -55 -6 -61 -5 -85 19 -21 21 -25 33 -23 73 3 38 0 47 -14 50 -10 2
-23 -1 -30 -6 -7 -5 -27 -12 -45 -15 -18 -4 -46 -16 -62 -29 -29 -21 -30 -21
-50 -3 -11 10 -18 20 -16 24 7 11 -21 42 -44 46 -35 7 -124 -59 -170 -124 -9
-12 -28 -22 -46 -24 -17 -2 -55 -17 -85 -35 -55 -31 -75 -28 -63 11 6 20 -21
24 -33 4 -4 -8 -29 -19 -55 -27 -55 -15 -98 -52 -93 -80 5 -28 35 -64 72 -90
40 -27 93 -78 93 -88 -1 -24 -11 -28 -120 -49 -41 -8 -83 -22 -92 -30 -26 -23
-22 -64 10 -109 31 -43 35 -85 10 -111 -22 -22 -53 -8 -72 30 -8 18 -24 41
-35 51 -16 15 -23 16 -42 5 -13 -7 -30 -19 -38 -26 -29 -29 -62 -46 -72 -36
-12 12 9 75 22 67 16 -10 66 53 78 98 21 81 20 96 -5 145 -31 57 -50 82 -118
153 -73 77 -94 110 -108 170 -12 53 -56 111 -80 106 -7 -1 -29 -11 -49 -21
-45 -22 -75 -16 -116 24 -17 16 -42 36 -55 45 -23 15 -26 15 -53 -14 -24 -25
-35 -29 -81 -29 -57 1 -133 -30 -181 -76 -15 -14 -30 -25 -34 -25 -3 0 -11
-11 -17 -24 -16 -36 2 -52 85 -75 89 -24 92 -26 109 -67 34 -81 -39 -98 -115
-28 -29 27 -34 28 -64 13 -48 -26 -92 -9 -180 68 -50 44 -85 44 -128 -2 -55
-58 -93 -45 -223 81 -21 21 -55 34 -70 28 -8 -3 -22 -27 -30 -52 -21 -63 -44
-75 -155 -87 -24 -2 -60 -16 -80 -29 -61 -42 -84 -47 -122 -27 -42 22 -93 116
-93 171 0 79 57 103 205 85 63 -7 66 -5 93 66 22 60 48 73 126 66 51 -4 67
-11 98 -39 41 -37 117 -64 154 -54 13 3 33 23 46 46 12 22 30 41 40 42 9 1 24
2 32 3 55 5 89 33 119 99 6 15 65 65 84 71 26 10 20 41 -13 65 -16 12 -30 18
-30 14 0 -3 -6 -2 -13 4 -24 21 -122 29 -212 18 -44 -5 -56 -2 -104 27 -97 58
-105 61 -161 63 -46 2 -60 -2 -97 -29 -24 -17 -43 -33 -43 -37 0 -10 -47 -30
-70 -30 -20 0 -32 36 -34 100 -1 19 -8 44 -16 56 -47 65 -229 163 -313 169
-46 3 -129 -23 -147 -46 -3 -4 -40 -26 -84 -48 -82 -44 -99 -45 -144 -10 -17
13 -37 17 -76 14 -30 -1 -58 -5 -63 -8 -5 -3 -27 -8 -49 -11 -95 -15 -132 -25
-138 -41 -3 -8 17 -36 46 -65 71 -71 62 -84 -56 -81 -102 2 -83 -68 28 -102
96 -31 94 -58 -5 -78 -30 -6 -58 -12 -64 -13 -35 -8 -90 -49 -160 -120 -84
-86 -110 -103 -160 -100 -46 2 -111 22 -125 39 -18 21 -3 88 30 133 22 31 36
40 67 44 76 11 153 83 153 144 0 16 -7 47 -14 69 -13 37 -13 41 9 61 13 11 38
30 57 42 18 11 43 34 55 50 21 28 21 31 5 63 -10 20 -34 43 -58 57 l-42 22
-73 -29 c-58 -24 -77 -27 -96 -18 -12 5 -23 14 -23 18 0 20 -73 51 -124 52
-47 1 -58 -2 -80 -26 -30 -32 -45 -34 -77 -8 -13 10 -53 35 -89 54 -59 33 -66
35 -82 20 -16 -14 -20 -13 -54 21 -38 38 -52 44 -58 24z m506 -1027 c80 -31
96 -54 76 -112 -21 -59 -79 -53 -93 10 -10 47 -32 59 -105 59 -36 0 -71 1 -77
1 -18 1 -16 31 3 52 22 24 118 19 196 -10z m-1479 -71 c22 0 67 -50 67 -74 0
-43 -101 -140 -156 -150 -15 -3 -45 -22 -65 -42 -34 -34 -41 -36 -63 -26 -16
7 -29 25 -37 53 -8 24 -23 48 -38 57 -41 26 -49 42 -40 79 4 19 9 36 11 38 9
9 58 13 63 4 14 -21 79 -9 129 25 53 35 82 46 104 40 8 -2 19 -4 25 -4z m3694
-34 c21 -25 22 -30 10 -49 -8 -12 -34 -32 -57 -44 -38 -20 -46 -21 -64 -9 -14
9 -22 26 -24 52 -3 32 1 42 24 60 36 30 80 25 111 -10z m-2392 -120 c11 -3 58
-8 105 -11 83 -5 149 -20 151 -33 1 -13 8 -46 13 -67 6 -24 49 -52 126 -81 57
-22 67 -36 56 -79 -7 -26 -72 -95 -90 -95 -6 0 -29 -14 -50 -30 -22 -17 -45
-30 -51 -30 -7 0 -24 -11 -39 -25 -21 -19 -26 -33 -26 -69 0 -37 -3 -43 -18
-39 -10 2 -33 26 -51 53 -28 42 -33 55 -28 86 4 21 10 40 15 43 24 17 62 80
56 94 -5 14 -14 12 -64 -14 l-58 -30 -46 28 c-49 30 -66 63 -46 88 7 8 10 15
7 15 -3 0 0 15 8 32 15 38 5 68 -24 68 -51 0 -86 100 -49 140 l20 22 32 -30
c17 -16 40 -32 51 -36z m2156 0 c32 -39 54 -96 43 -114 -6 -8 -39 -35 -73 -59
-63 -43 -106 -54 -128 -32 -14 14 -8 32 29 86 16 24 31 61 33 84 7 68 55 85
96 35z m-3945 -214 c34 -27 56 -69 49 -92 -13 -42 -70 -10 -95 54 -20 52 4 72
46 38z m272 -4 c17 -17 15 -94 -3 -131 -10 -21 -29 -38 -55 -49 -48 -20 -65
-10 -84 46 -18 51 -5 91 38 114 58 32 87 37 104 20z m2668 -72 c42 -29 129
-72 129 -65 0 1 10 -1 23 -5 35 -11 27 -42 -20 -76 -41 -29 -78 -80 -78 -107
0 -7 -10 -18 -22 -24 -19 -10 -24 -9 -37 10 -49 68 -47 67 -76 51 -30 -16 -57
-6 -61 24 -2 16 8 29 50 64 12 9 16 31 16 81 0 63 4 81 19 81 4 0 29 -15 57
-34z m-254 -83 c14 -12 18 -32 18 -82 0 -36 -4 -71 -8 -77 -4 -6 -25 -20 -47
-31 -22 -11 -53 -28 -70 -37 -29 -15 -31 -15 -47 4 -11 13 -15 31 -11 52 5 31
29 87 42 98 3 3 16 26 28 52 20 42 25 46 50 42 15 -3 36 -12 45 -21z m-312
-83 c23 -9 30 -19 30 -39 0 -27 -41 -96 -69 -117 -11 -9 -12 -15 -4 -25 28
-36 27 -184 -2 -196 -20 -7 -69 35 -89 75 -22 45 -20 81 9 143 l24 54 -21 11
c-12 6 -39 10 -60 8 -40 -4 -44 0 -52 46 -7 47 15 57 115 54 49 -1 103 -7 119
-14z m2411 -15 c22 -7 25 -44 8 -94 -13 -35 -25 -39 -48 -13 -9 10 -28 26 -42
36 -31 19 -29 48 3 71 19 13 37 13 79 0z m-511 -45 c0 -18 -7 -33 -17 -38 -17
-9 -24 -8 -62 4 -10 3 -6 12 15 33 39 40 64 40 64 1z m705 21 c3 -5 1 -12 -4
-15 -18 -12 2 -47 35 -61 19 -8 34 -19 34 -25 0 -33 -63 -119 -87 -120 -17 0
-16 5 2 40 13 25 13 30 -3 50 -11 13 -33 23 -60 27 -49 7 -54 22 -14 45 15 9
38 28 51 42 26 28 36 32 46 17z m-1121 -53 c14 -20 14 -24 -8 -52 -28 -36 -74
-55 -87 -35 -27 43 9 97 73 108 4 0 14 -9 22 -21z m311 -38 c3 -5 -5 -15 -19
-21 -49 -23 -43 -42 24 -84 64 -40 100 -85 68 -85 -6 0 -40 -13 -75 -30 -34
-16 -73 -30 -86 -30 -54 0 -115 81 -124 165 -5 51 -4 54 24 69 17 8 48 14 69
12 22 -1 48 1 59 5 29 11 53 11 60 -1z m-3741 -55 c9 -13 16 -33 16 -44 0 -24
36 -52 59 -44 9 4 28 15 44 25 36 25 77 29 98 9 10 -9 25 -35 34 -59 17 -41
17 -45 -1 -85 -18 -40 -20 -72 -4 -92 11 -15 3 -48 -15 -61 -11 -8 -26 -9 -46
-4 -33 10 -89 47 -89 59 0 10 -54 33 -83 36 -96 9 -168 42 -176 80 -2 11 -18
41 -37 68 -41 57 -45 102 -11 110 12 3 46 4 74 2 33 -1 59 3 70 11 27 20 49
17 67 -11z m4706 -25 c0 -24 -15 -40 -36 -40 -29 0 -33 27 -7 45 17 13 43 10
43 -5z m-3019 -23 c30 -23 66 -112 49 -122 -5 -3 -21 5 -35 17 -15 13 -40 25
-58 28 -42 7 -64 46 -40 72 18 21 61 23 84 5z m-1976 -103 c43 -11 53 -24 89
-122 28 -74 16 -101 -45 -108 -52 -6 -85 19 -119 92 -36 78 -38 117 -9 138 21
14 28 14 84 0z m3320 8 c21 -14 2 -69 -37 -104 -30 -26 -42 -29 -65 -15 -15
10 1 47 43 96 26 31 40 37 59 23z m315 -51 c19 -60 -1 -144 -42 -170 -26 -16
-29 -12 -34 50 -2 28 -6 54 -8 57 -3 2 -27 -5 -54 -16 -26 -11 -60 -19 -75
-18 -16 2 -38 -5 -53 -16 -20 -16 -28 -18 -39 -8 -8 7 -15 18 -15 25 0 25 92
69 170 81 37 6 90 33 90 46 0 4 11 8 23 8 19 0 27 -8 37 -39z m494 -120 c21
-23 18 -25 -63 -46 -35 -9 -76 -25 -91 -36 -18 -14 -43 -21 -75 -21 -54 0 -62
6 -71 49 -6 28 -3 31 22 36 16 3 55 5 88 3 40 -2 68 3 90 15 42 23 79 23 100
0z m-3271 -22 c22 -27 22 -44 -2 -83 -11 -17 -25 -53 -32 -79 -6 -27 -18 -51
-26 -54 -19 -7 -120 41 -161 77 -49 42 -46 120 6 153 41 26 190 16 215 -14z
m2391 5 c28 -11 17 -44 -29 -89 -80 -78 -138 -68 -139 24 -1 43 1 46 34 58 38
13 109 17 134 7z m154 -72 c6 -39 -38 -71 -69 -51 -12 7 -10 15 5 44 23 42 59
46 64 7z m812 -6 c0 -30 -13 -46 -36 -46 -28 0 -31 16 -7 42 19 21 43 24 43 4z
m-2210 -203 c0 -72 -25 -127 -60 -132 -14 -1 -63 -16 -109 -31 l-84 -28 -30
21 c-17 12 -41 30 -53 40 l-21 18 52 55 c29 30 62 55 74 55 11 1 24 2 29 3 4
1 24 5 44 9 21 4 57 17 80 27 71 32 78 29 78 -37z m3609 18 c11 -7 9 -13 -8
-30 -38 -38 -71 -19 -34 21 18 20 22 21 42 9z m-2514 -34 c17 -78 10 -104 -32
-117 -68 -20 -151 -58 -171 -77 -7 -7 -16 -13 -20 -14 -4 0 -17 -2 -29 -5 -30
-5 -43 21 -31 64 l9 33 53 -6 c58 -8 48 -15 135 97 40 50 78 62 86 25z m2372
-16 c60 -30 80 -56 128 -155 l44 -94 71 -33 c38 -18 70 -35 70 -39 0 -3 13
-14 30 -23 38 -23 55 -53 40 -72 -16 -19 -73 -45 -110 -49 -23 -3 -37 2 -48
15 -22 25 -34 24 -63 -7 -40 -44 -63 -47 -129 -19 -110 46 -180 49 -180 8 -1
-22 -28 -57 -57 -72 -20 -10 -26 -7 -50 19 -40 46 -83 113 -83 131 0 9 9 28
20 42 22 28 27 76 8 78 -7 1 -27 0 -44 -1 -23 -1 -33 4 -42 24 -20 44 2 113
46 145 40 28 59 27 93 -10 38 -40 63 -28 84 43 33 113 64 125 172 69z m-887
-13 c23 -25 40 -79 35 -110 -3 -11 -13 -37 -23 -57 -11 -20 -23 -52 -27 -70
-8 -36 -24 -46 -58 -37 -34 9 -47 20 -52 45 -6 33 77 251 96 251 5 0 17 -10
29 -22z m-332 -37 c13 -7 27 -31 36 -62 8 -27 25 -69 37 -92 12 -23 28 -54 36
-69 22 -43 9 -68 -34 -68 -30 0 -60 33 -95 106 l-29 61 -50 2 c-30 0 -68 -7
-92 -18 -66 -29 -82 -32 -101 -18 -15 11 -17 21 -12 50 4 21 10 37 15 37 4 0
13 11 20 24 17 31 47 44 123 52 35 3 65 8 67 10 7 7 56 -3 79 -15z m-2134 -38
c17 -28 21 -43 14 -55 -13 -25 -70 -24 -93 2 -17 19 -18 22 -2 55 22 47 50 46
81 -2z m2646 -3 c0 -19 -44 -40 -56 -27 -11 10 7 46 24 50 24 5 32 -1 32 -23z
m-317 -9 c21 -17 17 -69 -6 -83 -22 -14 -67 -8 -87 12 -27 27 -25 46 5 74 28
26 56 25 88 -3z m-3275 11 c10 -7 5 -20 -20 -57 -41 -60 -61 -74 -85 -59 -26
16 -28 59 -4 92 15 21 29 28 58 30 21 1 44 -2 51 -6z m-248 -21 c15 -29 14
-31 -49 -98 -44 -47 -61 -72 -66 -102 -7 -45 -28 -68 -69 -75 -34 -6 -83 19
-92 46 -3 10 -16 21 -30 24 -19 5 -31 -1 -54 -24 -34 -36 -63 -47 -89 -33 -19
10 -19 12 -1 70 17 53 18 91 5 128 -2 6 3 17 11 23 22 19 64 -4 103 -56 46
-61 70 -65 117 -20 20 20 41 37 46 37 43 7 64 20 83 51 30 53 65 64 85 29z
m1502 -43 c45 24 68 10 68 -40 0 -46 -36 -80 -84 -80 -19 0 -39 3 -44 6 -5 3
-31 8 -58 11 -26 4 -52 9 -57 12 -7 4 -4 39 10 86 9 33 44 37 89 11 40 -23 41
-24 76 -6z m285 0 c7 -1 27 -13 44 -28 29 -24 31 -30 25 -65 -5 -23 -19 -49
-38 -67 -49 -45 -88 -37 -119 26 -12 22 -29 48 -39 56 -27 23 -33 55 -14 74
13 14 28 16 73 11 31 -3 62 -7 68 -7z m2300 -85 c2 -6 -8 -19 -22 -29 -33 -22
-51 -7 -29 24 16 24 44 26 51 5z m-141 -12 c27 -3 22 -33 -12 -70 -38 -43 -36
-48 21 -56 58 -7 77 -15 71 -31 -8 -21 9 -26 100 -25 77 1 84 -1 84 -18 0 -37
-29 -54 -81 -47 -43 6 -49 4 -68 -20 -12 -15 -21 -33 -21 -40 0 -24 -39 -38
-69 -23 -93 47 -139 96 -143 155 -2 19 -14 36 -40 53 -46 32 -52 47 -33 74 8
12 15 18 15 13 0 -5 8 -2 18 6 34 30 81 39 158 29z m-4482 -69 c-12 -20 -24
-58 -28 -84 l-7 -47 -52 3 c-92 6 -144 38 -133 81 7 27 52 55 88 55 13 0 46
14 73 30 44 26 52 28 65 14 13 -13 13 -19 -6 -52z m2174 -63 c17 -6 32 -18 32
-26 0 -26 -41 -101 -72 -130 l-29 -28 -43 47 c-23 26 -54 50 -70 54 -15 3 -30
13 -33 20 -9 25 7 65 30 74 27 12 140 5 185 -11z m-1460 -105 c8 -75 -59 -147
-113 -122 -22 10 -26 17 -21 40 8 39 34 72 76 97 43 25 54 23 58 -15z m2056
-49 c47 -74 61 -85 101 -78 29 5 41 1 60 -17 45 -42 42 -130 -5 -130 -10 0
-38 16 -62 35 -71 58 -99 67 -189 60 -88 -7 -114 -2 -123 22 -9 22 36 94 76
125 63 48 104 43 142 -17z m-257 2 c22 -14 -7 -96 -34 -98 -10 -1 -40 -3 -68
-5 -27 -2 -60 -1 -73 1 -21 5 -22 7 -7 34 8 16 28 40 44 54 25 21 39 25 79 23
27 -2 54 -6 59 -9z m-3577 -31 c33 -8 75 -40 75 -57 0 -26 -82 -61 -155 -66
-67 -5 -71 -4 -100 25 -16 17 -30 39 -30 50 0 24 28 49 60 54 32 5 117 1 150
-6z m1620 -28 c0 -20 -41 -88 -59 -98 -15 -7 -23 -6 -35 6 -22 21 -20 37 7 61
39 36 87 53 87 31z m984 -11 c46 -30 47 -94 1 -83 -12 3 -47 -2 -76 -12 -58
-20 -87 -17 -119 10 -21 18 -25 44 -12 65 25 39 157 52 206 20z m-427 -41 c15
-13 45 -29 66 -37 20 -7 37 -17 37 -21 0 -4 6 -8 14 -8 27 0 9 -34 -25 -46
-58 -21 -115 -17 -133 8 -23 33 -20 128 4 128 5 0 21 -11 37 -24z m3287 -222
c10 -25 -10 -50 -59 -73 -70 -33 -83 -28 -49 17 52 68 95 91 108 56z m-4659
-40 c56 -37 50 -70 -19 -99 -37 -16 -46 -12 -46 21 0 13 -4 24 -8 24 -13 0
-14 63 -1 71 16 10 42 4 74 -17z m256 7 c6 -27 4 -81 -4 -103 -7 -21 -18 -29
-45 -35 -55 -11 -114 -5 -131 12 -14 14 -13 18 9 38 48 42 115 94 130 99 16 6
39 0 41 -11z m261 -18 c14 -8 0 -86 -19 -104 -23 -23 -100 -41 -110 -26 -11
18 -11 110 -1 130 8 16 17 18 66 12 31 -4 60 -9 64 -12z m-1545 -17 c13 4 23
2 24 -2 0 -5 2 -18 4 -28 5 -25 -23 -95 -48 -123 -21 -23 -51 -30 -61 -14 -3
5 -32 19 -63 31 -32 13 -61 26 -66 30 -4 3 6 21 23 38 16 18 30 41 30 51 0 32
27 40 84 25 27 -7 61 -11 73 -8z m5521 -90 c30 -10 28 -31 -8 -76 -32 -41 -41
-105 -18 -128 9 -9 9 -12 0 -12 -19 0 -61 52 -75 95 -18 55 -3 111 32 123 28
10 34 10 69 -2z m-2308 -49 c27 -23 25 -41 -11 -93 -33 -48 -33 -51 3 -68 48
-23 90 -161 56 -183 -7 -4 -37 -8 -66 -10 -35 -1 -62 -9 -78 -22 -41 -32 -64
-10 -100 95 -27 79 -22 126 17 170 11 11 19 26 19 32 0 7 3 12 8 12 4 0 16 14
27 30 11 16 26 30 33 30 6 0 12 4 12 9 0 23 53 21 80 -2z m-2256 -5 c12 -20
13 -62 2 -77 -27 -38 -90 23 -72 70 6 16 61 21 70 7z m4253 -1 c37 -3 108
-130 85 -153 -8 -8 -19 -3 -41 20 -16 18 -37 33 -48 33 -10 1 -22 2 -28 4 -5
1 -20 3 -32 3 -28 2 -57 44 -48 71 6 20 39 30 80 25 11 -1 25 -3 32 -3z
m-4571 -66 c-9 -25 -36 0 -36 33 l0 26 21 -21 c14 -13 19 -28 15 -38z m676
-21 c61 -46 82 -99 40 -102 -31 -1 -89 29 -103 54 -16 30 -22 30 -39 -1 -15
-28 -22 -30 -51 -15 -26 15 -25 56 3 71 56 30 104 28 150 -7z m1373 -65 c38
-26 58 -69 58 -122 0 -42 -13 -56 -53 -57 -14 0 -45 -14 -69 -30 -40 -27 -52
-32 -93 -33 -20 -1 -61 19 -83 40 -31 30 -69 108 -62 127 7 18 64 46 112 53
17 3 38 9 48 14 9 5 17 7 17 4 0 -3 10 1 22 9 31 22 66 20 103 -5z m-1837 -53
c26 -23 31 -81 7 -90 -29 -11 -83 27 -86 61 -1 7 -2 19 -3 26 -1 6 -1 15 1 19
7 14 58 4 81 -16z m2780 -32 c54 -31 82 -54 82 -69 0 -17 -37 -43 -66 -48 -11
-1 -33 -12 -48 -24 -50 -39 -84 -39 -93 -1 -24 104 -21 128 15 149 34 20 68
18 110 -7z m-2030 -113 c81 -55 95 -74 98 -129 1 -26 9 -69 19 -97 24 -70 26
-87 14 -102 -25 -29 -147 -4 -175 36 -8 11 -34 29 -58 40 -46 20 -66 45 -66
81 0 19 -4 20 -39 15 -45 -7 -52 3 -39 52 6 23 15 33 37 38 17 3 48 27 74 56
24 27 52 49 61 49 10 0 43 -17 74 -39z m644 11 c50 -5 55 -70 7 -83 -44 -11
-106 38 -89 71 8 16 19 17 82 12z m2558 -76 c12 -38 65 -95 113 -121 17 -10
43 -31 55 -47 22 -27 23 -30 8 -52 -8 -13 -30 -29 -48 -35 -68 -22 -99 -19
-175 16 -78 36 -147 46 -200 30 -24 -8 -36 -7 -48 3 -36 30 -4 78 80 120 64
32 135 87 135 105 0 20 31 35 51 24 10 -5 22 -24 29 -43z m1707 2 c21 -27 62
-145 57 -165 -3 -11 -17 -26 -30 -32 -13 -6 -29 -22 -36 -36 -15 -33 -31 -32
-90 7 -72 45 -88 108 -33 122 15 4 38 27 60 61 35 55 54 66 72 43z m-4108 -17
c11 -7 23 -24 27 -39 3 -15 7 -32 9 -39 9 -28 -21 -32 -72 -8 -70 32 -92 73
-50 93 25 12 55 9 86 -7z m-408 -1 c5 0 9 -6 9 -14 0 -8 4 -16 8 -18 17 -7
107 -139 109 -160 12 -121 8 -237 -10 -254 -3 -3 -13 -5 -23 -6 -85 -3 -151
55 -169 150 -2 9 -4 18 -4 20 -1 1 -1 5 0 8 0 4 -3 10 -8 13 -13 10 -63 115
-63 133 0 9 16 32 35 51 19 19 35 38 35 42 0 15 44 46 58 40 7 -3 18 -5 23 -5z
m1717 -24 c64 -34 100 -110 67 -146 -21 -23 -93 -19 -139 8 -34 20 -40 38 -20
62 7 9 20 32 29 53 17 41 24 43 63 23z m530 -59 c31 -33 74 -134 67 -156 -7
-23 -31 -30 -65 -20 -14 4 -52 8 -85 8 -33 1 -65 5 -71 9 -14 9 -3 39 25 69
12 12 21 26 21 30 0 15 61 83 74 83 7 0 22 -10 34 -23z m1999 -63 c12 -19 36
-34 63 -39 41 -8 50 -18 45 -47 -3 -17 -9 -38 -14 -47 -4 -9 -7 -29 -5 -46 3
-27 -3 -34 -49 -63 -30 -19 -53 -29 -55 -23 -2 6 -9 17 -16 24 -16 16 -33 69
-40 127 -4 30 -15 53 -36 75 l-30 30 23 15 c50 33 89 31 114 -6z m-4800 -142
c-23 -22 -97 -17 -97 7 0 13 74 28 94 18 17 -8 17 -10 3 -25z m3336 -47 c-2
-64 -26 -90 -69 -73 -35 13 -78 5 -96 -18 -68 -85 -110 -97 -143 -41 -25 42
-28 64 -13 99 12 25 26 34 52 29 66 -13 86 -10 166 23 47 20 90 34 95 32 6 -2
9 -25 8 -51z m-3126 3 c19 -18 52 -58 75 -88 36 -50 130 -129 183 -155 11 -5
25 -15 30 -21 24 -26 103 -82 133 -94 67 -26 20 -54 -76 -45 -37 4 -105 8
-151 10 -93 4 -126 20 -101 49 7 9 19 16 28 16 25 0 54 41 47 68 -12 49 -72
88 -171 111 -38 9 -63 24 -98 57 l-46 45 -40 -22 c-26 -15 -44 -35 -54 -59
-20 -50 -40 -63 -97 -65 -44 -2 -48 0 -45 19 2 14 14 24 39 31 42 12 56 24 62
52 5 29 35 73 49 73 6 0 38 13 71 30 75 37 115 34 162 -12z m1725 8 c49 -7
107 -32 136 -59 28 -26 64 -92 68 -124 4 -42 -128 -133 -194 -133 -19 0 -39
11 -63 36 -18 20 -54 47 -79 61 -64 37 -80 60 -80 115 0 61 17 97 49 104 14 3
31 7 36 8 11 3 67 -1 127 -8z m1618 -11 c34 -18 51 -62 29 -76 -23 -15 -37
-10 -75 23 l-36 32 24 18 c28 21 23 21 58 3z m2171 -73 c3 -45 -20 -82 -53
-82 -26 0 -28 38 -3 75 16 26 55 30 56 7z m-4807 -27 c58 -41 77 -43 119 -12
28 19 44 22 127 22 113 -1 194 -22 238 -64 29 -26 30 -31 21 -65 -13 -47 -42
-80 -91 -106 -52 -27 -72 -25 -131 11 -85 52 -88 52 -148 7 -46 -35 -59 -39
-92 -35 -45 6 -104 49 -119 85 -5 15 -11 43 -13 63 -1 20 -6 45 -9 56 -9 29
10 73 31 73 10 0 40 -16 67 -35z m3692 -46 c39 -32 -3 -84 -70 -88 -40 -2 -47
2 -70 32 -30 39 -33 64 -8 69 34 7 135 -2 148 -13z m-4843 -28 c17 -2 4 -26
-36 -65 -32 -31 -46 -53 -50 -82 -7 -43 -30 -62 -77 -65 -42 -2 -48 0 -55 20
-14 44 -13 65 1 100 16 41 71 79 127 88 18 3 33 6 34 7 2 2 13 2 25 0 13 -1
26 -3 31 -3z m3035 -10 c23 -2 43 -65 31 -100 -17 -47 -52 -42 -106 15 -24 26
-43 53 -43 60 0 15 54 33 85 29 11 -2 26 -4 33 -4z m-3298 -43 c0 -42 -82
-116 -109 -99 -29 18 16 92 68 112 20 8 41 0 41 -13z m3018 -118 c85 -59 90
-64 97 -93 11 -42 -38 -144 -90 -189 -68 -60 -164 -21 -193 78 -23 79 -13 116
47 172 13 12 21 22 18 22 -4 0 3 11 15 25 12 14 28 25 35 25 8 0 40 -18 71
-40z m783 -21 c11 -5 17 -15 13 -21 -4 -6 -9 -29 -11 -52 -3 -23 -11 -47 -17
-54 -25 -26 -39 44 -27 131 1 10 19 9 42 -4z m-3813 -69 c3 -19 -56 -85 -84
-94 -30 -9 -38 17 -19 59 24 49 95 74 103 35z m3949 -40 c2 0 3 -13 3 -30 0
-19 -7 -33 -20 -40 -17 -9 -25 -6 -45 14 -43 43 -26 81 28 65 18 -5 33 -9 34
-9z m104 -40 c19 -11 27 -54 11 -64 -20 -12 -67 -14 -79 -4 -16 13 -7 47 16
65 20 15 27 16 52 3z"/>
</g>
</svg>
