<svg xmlns="http://www.w3.org/2000/svg" width="526" height="556" viewBox="0 0 526 556">
  <g fill="none" fill-rule="evenodd" transform="translate(17 -24)">
    <path fill="#F8C73E" d="M161.923,281.982 C161.923,314.84 180.877,343.192 208.436,356.847 L208.436,369.891 L282.429,383.24 L282.429,356.847 C309.988,343.192 328.941,314.829 328.941,281.982 C328.941,235.855 291.51,198.49 245.449,198.49 C199.299,198.49 161.923,235.855 161.923,281.982 L161.923,281.982 Z M209.959,409.503 C212.382,416.863 217.397,423.068 223.942,427.008 L223.942,441.388 L266.9,441.388 L266.9,427.008 C269.617,425.378 272.018,423.397 274.135,421.098 L209.959,409.503 L209.959,409.503 Z M115.949,275.72 C116.549,272.278 117.296,268.915 118.157,265.564 L88.163,258.691 L85.831,268.858 L115.949,275.72 Z M138.775,221.519 C140.802,218.7 142.931,215.925 145.172,213.287 L121.678,194.56 L115.167,202.712 L138.775,221.519 L138.775,221.519 Z M183.092,182.502 C186.126,180.848 189.263,179.388 192.467,177.972 L179.615,151.308 L170.218,155.825 L183.092,182.502 L183.092,182.502 Z M240.259,167.057 C241.991,166.989 243.689,166.786 245.445,166.786 C247.188,166.786 248.898,166.989 250.642,167.057 L250.642,137.472 L240.259,137.472 L240.259,167.057 L240.259,167.057 Z M298.457,177.983 C301.627,179.399 304.775,180.871 307.832,182.513 L320.694,155.825 L311.274,151.308 L298.457,177.983 L298.457,177.983 Z M345.728,213.31 C347.981,215.948 350.065,218.733 352.103,221.553 L375.722,202.712 L369.245,194.56 L345.728,213.31 L345.728,213.31 Z M372.722,265.564 C373.594,268.915 374.341,272.278 374.94,275.731 L405.036,268.858 L402.737,258.691 L372.722,265.564 L372.722,265.564 Z M282.435,390.057 L208.442,376.753 L208.442,386.117 L282.435,399.466 L282.435,390.057 Z M278.48,415.03 L208.563,402.383 C208.484,401.534 208.439,400.639 208.439,399.745 L208.439,392.974 L281.753,406.199 C281.13,409.324 280.009,412.301 278.48,415.03 L278.48,415.03 Z"/>
    <path stroke="#F8C73E" stroke-width="34.076" d="M450.469,419.922 C475.625,381.398 490.829,336.152 490.829,286.71 C490.829,151.181 380.962,41.313 245.434,41.313 C109.905,41.313 0.038,151.181 0.038,286.71 C0.038,422.238 109.905,532.105 245.434,532.105 C279.416,532.105 311.783,525.195 341.211,512.708 L484.372,555.172 L450.469,419.922 Z"/>
  </g>
</svg>
