<svg xmlns="http://www.w3.org/2000/svg" xmlns:xlink="http://www.w3.org/1999/xlink" width="532" height="587" viewBox="0 0 532 587">
  <defs>
    <polygon id="a" points="161.511 64.94 .176 64.94 .176 .201 161.511 .201 161.511 64.94"/>
    <polygon id="c" points=".06 532.5 .06 .228 531.547 .228 531.547 532.5"/>
  </defs>
  <g fill="none" fill-rule="evenodd">
    <g transform="translate(208 522)">
      <mask id="b" fill="white">
        <use xlink:href="#a"/>
      </mask>
      <polyline fill="#343534" points="97.299 5.754 102.482 65 161.511 59.81 156.341 .57 97.299 5.754" mask="url(#b)"/>
      <polyline fill="#343534" points=".176 59.773 59.218 64.978 64.367 5.425 5.339 .201 .176 59.773" mask="url(#b)"/>
    </g>
    <polyline fill="#E77C56" points="179.465 282.099 137.969 240.829 229.767 149.548 271.209 190.798 179.465 282.099"/>
    <polyline fill="#FAD9C6" points="139.795 239.052 181.27 280.282 128.066 333.207 86.632 291.957 139.795 239.052"/>
    <polyline fill="#E77C56" points="398.259 282.099 439.693 240.829 347.956 149.548 306.481 190.798 398.259 282.099"/>
    <polyline fill="#FAD9C6" points="437.913 239.052 396.438 280.282 449.622 333.207 491.083 291.957 437.913 239.052"/>
    <mask id="d" fill="white">
      <use xlink:href="#c"/>
    </mask>
    <polyline fill="#F6CAB9" points="129.101 332.214 87.619 373.45 46.137 332.214 87.619 290.943 129.101 332.214" mask="url(#d)"/>
    <polyline fill="#F6CAB9" points="448.632 332.215 490.065 373.444 531.548 332.215 490.065 290.937 448.632 332.215" mask="url(#d)"/>
    <path fill="#DE492A" d="M382.755,523.203 L347.41,151.467 L230.252,151.467 L194.928,523.203 C194.928,523.203 240.667,532.5 288.851,532.5 C337.015,532.5 382.755,523.203 382.755,523.203" mask="url(#d)"/>
    <path fill="#F6CAB9" d="M371.137,117.781 C354.592,163.221 304.316,186.652 258.897,170.114 C213.431,153.576 190.027,103.3 206.544,57.861 C223.083,12.415 273.317,-11.017 318.777,5.542 C364.244,22.06 387.675,72.322 371.137,117.781" mask="url(#d)"/>
    <path fill="#DE492A" d="M123.226,147.731 C113.343,165.297 95.755,178.546 65.131,202.297 C34.472,178.546 16.892,165.311 6.988,147.731 C-6.975,123.025 1.485,102.094 19.154,93.907 C35.74,86.21 57.434,93.45 65.131,109.995 C72.808,93.45 94.495,86.223 111.095,93.907 C128.743,102.094 137.196,123.025 123.226,147.731" mask="url(#d)"/>
  </g>
</svg>
