<svg xmlns="http://www.w3.org/2000/svg" xmlns:xlink="http://www.w3.org/1999/xlink" width="694" height="587" viewBox="0 0 694 587">
  <defs>
    <polygon id="a" points=".06 .806 .06 113.355 187.854 113.355 187.854 .806 .06 .806"/>
    <polygon id="c" points=".949 586.94 304.309 586.94 304.309 .492 .949 .492"/>
  </defs>
  <g fill="none" fill-rule="evenodd">
    <polyline fill="#343534" points="556.39 507.613 557.158 516.397 565.911 515.628 565.143 506.844 556.39 507.613"/>
    <polyline fill="#343534" points="541.991 515.622 550.743 516.393 551.509 507.563 542.756 506.79 541.991 515.622"/>
    <polyline fill="#97CA8D" points="537.734 471.193 531.583 465.074 545.192 451.542 551.335 457.657 537.734 471.193"/>
    <polyline fill="#FAD9C6" points="531.853 464.811 538.003 470.925 530.114 478.769 523.972 472.655 531.853 464.811"/>
    <polyline fill="#50B055" points="565.142 506.896 562.714 479.284 562.714 451.542 545.18 451.542 545.18 479.331 542.758 506.896 551.514 507.659 553.971 482.361 556.387 507.659 565.142 506.896"/>
    <polyline fill="#343534" points="437.062 507.613 437.832 516.397 446.582 515.628 445.814 506.844 437.062 507.613"/>
    <polyline fill="#343534" points="422.664 515.622 431.416 516.393 432.182 507.563 423.43 506.79 422.664 515.622"/>
    <polyline fill="#E77C56" points="450.845 471.193 456.987 465.074 443.386 451.542 437.239 457.657 450.845 471.193"/>
    <polyline fill="#FAD9C6" points="456.724 464.811 450.574 470.925 458.46 478.769 464.604 472.655 456.724 464.811"/>
    <path fill="#DE492A" d="M448.546,506.938 L443.306,451.827 L425.936,451.827 L420.699,506.938 C420.699,506.938 427.479,508.316 434.624,508.316 C441.765,508.316 448.546,506.938 448.546,506.938"/>
    <polyline fill="#E77C56" points="440.278 472.133 431.639 472.912 430.017 453.788 438.653 453.011 440.278 472.133"/>
    <polyline fill="#FAD9C6" points="431.609 472.535 440.246 471.755 441.184 482.839 432.551 483.615 431.609 472.535"/>
    <polyline fill="#F6CAB9" points="441.171 482.628 441.901 491.268 433.266 492.049 432.53 483.406 441.171 482.628"/>
    <polyline fill="#97CA8D" points="548.733 472.173 557.395 472.688 558.429 453.523 549.775 453.011 548.733 472.173"/>
    <polyline fill="#FAD9C6" points="557.411 472.31 548.758 471.793 548.155 482.903 556.808 483.414 557.411 472.31"/>
    <polyline fill="#F6CAB9" points="548.162 482.69 547.696 491.348 556.351 491.866 556.822 483.204 548.162 482.69"/>
    <path fill="#F6CAB9" d="M446.823,446.833 C444.371,453.569 436.917,457.042 430.184,454.592 C423.442,452.139 419.974,444.685 422.422,437.95 C424.874,431.212 432.322,427.738 439.059,430.192 C445.803,432.64 449.275,440.093 446.823,446.833"/>
    <polyline fill="#343534" points="496.721 507.613 497.49 516.397 506.24 515.628 505.475 506.844 496.721 507.613"/>
    <polyline fill="#343534" points="482.323 515.622 491.075 516.393 491.84 507.563 483.088 506.79 482.323 515.622"/>
    <polyline fill="#FCDA88" points="478.066 471.193 471.915 465.074 485.524 451.542 491.667 457.657 478.066 471.193"/>
    <polyline fill="#FAD9C6" points="472.185 464.811 478.334 470.925 470.446 478.769 464.304 472.655 472.185 464.811"/>
    <polyline fill="#FCDA88" points="510.503 471.193 516.646 465.074 503.045 451.542 496.897 457.657 510.503 471.193"/>
    <polyline fill="#FAD9C6" points="516.382 464.811 510.232 470.925 518.119 478.769 524.264 472.655 516.382 464.811"/>
    <polyline fill="#F8C73E" points="505.475 506.896 503.046 479.284 503.046 451.542 485.512 451.542 485.512 479.331 483.089 506.896 491.846 507.659 494.303 482.361 496.718 507.659 505.475 506.896"/>
    <path fill="#F6CAB9" d="M506.482 446.833C504.03 453.569 496.576 457.042 489.842 454.592 483.101 452.139 479.633 444.685 482.081 437.95 484.533 431.212 491.98 427.738 498.719 430.192 505.462 432.64 508.934 440.093 506.482 446.833M566.15 446.833C563.698 453.569 556.244 457.042 549.511 454.592 542.77 452.139 539.301 444.685 541.749 437.95 544.201 431.212 551.649 427.738 558.387 430.192 565.13 432.64 568.603 440.093 566.15 446.833"/>
    <polyline fill="#F6CAB9" points="458.311 478.623 464.455 484.736 470.604 478.623 464.455 472.504 458.311 478.623"/>
    <polyline fill="#F6CAB9" points="517.971 478.623 524.113 484.736 530.263 478.623 524.113 472.504 517.971 478.623"/>
    <path fill="#343534" d="M472.542,540.181 L470.272,551.064 L470.221,551.064 L467.949,540.181 L463.747,540.181 L463.747,558.802 L466.53,558.802 L466.53,544.257 L466.582,544.257 L469.471,558.802 L471.02,558.802 L473.909,544.257 L473.961,544.257 L473.961,558.802 L476.744,558.802 L476.744,540.181 L472.542,540.181 Z M484.533,543.896 L484.585,543.896 L485.849,551.891 L483.269,551.891 L484.533,543.896 Z M482.806,554.675 L486.313,554.675 L486.881,558.802 L489.975,558.802 L486.545,540.181 L482.573,540.181 L479.142,558.802 L482.238,558.802 L482.806,554.675 Z M493.498,558.802 L496.694,558.802 L496.694,542.963 L499.79,542.963 L499.79,540.181 L490.403,540.181 L490.403,542.963 L493.498,542.963 L493.498,558.802 Z M511.846,546.395 L511.846,545.028 C511.846,542.243 510.3,539.924 507.101,539.924 C503.749,539.924 502.203,542.062 502.203,544.693 L502.203,554.29 C502.203,556.921 503.749,559.059 507.101,559.059 C510.3,559.059 511.846,556.921 511.846,554.29 L511.846,552.149 L508.651,552.149 L508.651,554.393 C508.651,555.605 508.265,556.276 507.101,556.276 C505.812,556.276 505.397,555.605 505.397,554.213 L505.397,544.77 C505.397,543.378 505.812,542.705 507.101,542.705 C507.929,542.705 508.651,543.378 508.651,544.951 L508.651,546.395 L511.846,546.395 Z M518.214,558.802 L518.214,550.546 L521.623,550.546 L521.623,558.802 L524.816,558.802 L524.816,540.181 L521.623,540.181 L521.623,547.764 L518.214,547.764 L518.214,540.181 L515.019,540.181 L515.019,558.802 L518.214,558.802 L518.214,558.802 Z"/>
    <g transform="translate(0 183)">
      <mask id="b" fill="white">
        <use xlink:href="#a"/>
      </mask>
      <path fill="#EB8B2D" d="M162.413,102.529 C153.553,109.544 142.666,113.355 131.193,113.355 C117.727,113.355 105.07,108.111 95.548,98.589 C91.157,94.2 87.677,89.14 85.201,83.644 L72.931,86.086 L85.67,62.155 L106.6,79.386 L93.919,81.91 C95.89,85.774 98.478,89.346 101.633,92.504 C109.53,100.399 120.027,104.747 131.193,104.747 C140.951,104.747 150.198,101.426 157.645,95.32 L156.562,101.503 L162.413,102.529 Z M177.333,83.307 C180.129,76.977 181.601,70.073 181.601,62.944 C181.601,49.481 176.359,36.821 166.838,27.299 C160.953,21.414 153.869,17.167 146.135,14.78 L148.813,20.269 L143.356,22.932 C149.858,24.898 155.814,28.447 160.751,33.386 C168.647,41.281 172.996,51.778 172.996,62.944 C172.996,68.24 172.014,73.384 170.143,78.172 L159.917,70.866 L161.69,97.923 L187.854,90.823 L177.333,83.307 Z M122.005,13.369 C112.038,15.194 102.867,19.983 95.548,27.299 C86.71,36.137 81.56,47.679 80.868,60.062 L85.547,55.885 L89.477,60.287 C90.11,50.121 94.368,40.651 101.633,33.386 C107.316,27.703 114.347,23.858 122.005,22.15 L122.005,35.138 L142.989,17.973 L122.005,0.806 L122.005,13.369 L122.005,13.369 Z" mask="url(#b)"/>
      <path fill="#343534" d="M8.225,72.622 L8.225,69.839 L3.196,69.839 L3.196,54.002 L0,54.002 L0,72.622 L8.225,72.622 Z M19.664,72.622 L19.664,69.839 L13.938,69.839 L13.938,64.368 L18.065,64.368 L18.065,61.585 L13.938,61.585 L13.938,56.786 L19.303,56.786 L19.303,54.002 L10.743,54.002 L10.743,72.622 L19.664,72.622 Z M27.234,57.717 L27.286,57.717 L28.55,65.712 L25.971,65.712 L27.234,57.717 Z M25.506,68.495 L29.014,68.495 L29.581,72.622 L32.677,72.622 L29.246,54.002 L25.274,54.002 L21.844,72.622 L24.939,72.622 L25.506,68.495 Z M38.351,56.631 L39.486,56.631 C41.216,56.631 41.861,57.276 41.861,59.494 C41.861,61.712 41.216,62.357 39.486,62.357 L38.351,62.357 L38.351,56.631 Z M38.351,64.988 C38.918,64.988 39.589,64.962 40.001,64.91 L42.273,72.622 L45.521,72.622 L42.815,64.188 C43.896,63.698 45.056,62.486 45.056,59.494 C45.056,55.524 43.225,54.002 39.64,54.002 L35.155,54.002 L35.155,72.622 L38.351,72.622 L38.351,64.988 Z M51.217,72.622 L51.217,60.992 L51.268,60.992 L55.348,72.622 L58.129,72.622 L58.129,54.002 L55.245,54.002 L55.245,64.655 L55.193,64.655 L51.294,54.002 L48.332,54.002 L48.332,72.622 L51.217,72.622 L51.217,72.622 Z" mask="url(#b)"/>
    </g>
    <path fill="#343534" d="M622.072,227.285 C621.789,224.655 620.243,222.774 617.639,222.774 C614.492,222.774 612.686,224.448 612.686,227.414 C612.686,232.755 619.185,233.735 619.185,237.424 C619.185,238.532 618.438,239.126 617.329,239.126 C616.295,239.126 615.547,238.198 615.418,236.315 L612.377,236.753 C612.506,239.538 614.208,241.909 617.174,241.909 C620.166,241.909 622.227,240.209 622.227,237.14 C622.227,232.085 615.727,230.561 615.727,227.388 C615.727,226.228 616.295,225.557 617.329,225.557 C618.051,225.557 618.902,226.021 619.031,227.62 L622.072,227.285 Z M634.62,229.245 L634.62,227.878 C634.62,225.093 633.073,222.774 629.875,222.774 C626.521,222.774 624.976,224.912 624.976,227.543 L624.976,237.14 C624.976,239.771 626.521,241.909 629.875,241.909 C633.073,241.909 634.62,239.771 634.62,237.14 L634.62,234.999 L631.425,234.999 L631.425,237.243 C631.425,238.455 631.037,239.126 629.875,239.126 C628.585,239.126 628.173,238.455 628.173,237.063 L628.173,227.62 C628.173,226.228 628.585,225.557 629.875,225.557 C630.702,225.557 631.425,226.228 631.425,227.801 L631.425,229.245 L634.62,229.245 Z M640.989,225.66 L642.124,225.66 C643.854,225.66 644.499,226.305 644.499,228.523 C644.499,230.741 643.854,231.386 642.124,231.386 L640.989,231.386 L640.989,225.66 Z M640.989,234.017 C641.557,234.017 642.226,233.991 642.64,233.94 L644.911,241.651 L648.159,241.651 L645.453,233.218 C646.534,232.727 647.695,231.515 647.695,228.523 C647.695,224.551 645.863,223.031 642.278,223.031 L637.793,223.031 L637.793,241.651 L640.989,241.651 L640.989,234.017 Z M659.891,241.651 L659.891,238.868 L654.164,238.868 L654.164,233.398 L658.291,233.398 L658.291,230.614 L654.164,230.614 L654.164,225.815 L659.529,225.815 L659.529,223.031 L650.971,223.031 L650.971,241.651 L659.891,241.651 Z M671.613,241.651 L671.613,238.868 L665.887,238.868 L665.887,233.398 L670.014,233.398 L670.014,230.614 L665.887,230.614 L665.887,225.815 L671.252,225.815 L671.252,223.031 L662.693,223.031 L662.693,241.651 L671.613,241.651 Z M677.3,241.651 L677.3,230.021 L677.351,230.021 L681.429,241.651 L684.212,241.651 L684.212,223.031 L681.326,223.031 L681.326,233.681 L681.274,233.681 L677.378,223.031 L674.413,223.031 L674.413,241.651 L677.3,241.651 Z M607.788,254.401 C607.788,253.24 608.253,252.57 609.055,252.57 C609.802,252.57 610.217,253.137 610.217,254.582 C610.217,255.871 609.415,257.006 608.667,257.987 C608.226,256.903 607.788,255.588 607.788,254.401 L607.788,254.401 Z M613.256,260.568 C612.998,261.754 612.559,262.889 612.121,264.024 C611.221,262.863 610.447,261.573 609.802,260.233 C611.246,258.631 612.998,256.903 612.998,254.582 C612.998,252.26 611.556,250.715 609.209,250.715 C606.526,250.715 605.159,252.57 605.159,255.098 C605.159,256.722 605.959,258.734 606.63,260.233 C605.34,261.625 604.182,263.56 604.182,265.494 C604.182,268.073 605.933,269.851 608.641,269.851 C610.24,269.851 611.272,269.412 612.302,268.434 C613.282,269.335 614.546,269.825 615.913,269.851 L615.913,267.016 C615.267,266.913 614.623,266.577 614.133,266.139 C614.804,264.54 615.526,262.967 615.887,261.264 L613.256,260.568 Z M607.117,265.081 C607.117,264.101 607.376,263.611 607.917,262.786 C608.59,264.153 609.493,265.365 610.473,266.526 C609.982,266.938 609.622,267.067 609.003,267.067 C607.891,267.067 607.117,266.165 607.117,265.081 L607.117,265.081 Z M628.604,254.687 L628.656,254.687 L629.92,262.683 L627.341,262.683 L628.604,254.687 Z M626.877,265.466 L630.385,265.466 L630.952,269.593 L634.047,269.593 L630.616,250.973 L626.644,250.973 L623.214,269.593 L626.309,269.593 L626.877,265.466 Z M645.432,255.227 C645.148,252.596 643.602,250.715 640.996,250.715 C637.849,250.715 636.046,252.389 636.046,255.356 C636.046,260.697 642.545,261.677 642.545,265.365 C642.545,266.474 641.798,267.067 640.686,267.067 C639.654,267.067 638.906,266.139 638.777,264.256 L635.736,264.695 C635.865,267.48 637.565,269.851 640.531,269.851 C643.525,269.851 645.587,268.151 645.587,265.081 C645.587,260.026 639.087,258.502 639.087,255.33 C639.087,254.169 639.654,253.499 640.686,253.499 C641.41,253.499 642.262,253.963 642.391,255.562 L645.432,255.227 Z M657.619,255.227 C657.335,252.596 655.787,250.715 653.182,250.715 C650.036,250.715 648.232,252.389 648.232,255.356 C648.232,260.697 654.732,261.677 654.732,265.365 C654.732,266.474 653.984,267.067 652.873,267.067 C651.841,267.067 651.094,266.139 650.962,264.256 L647.923,264.695 C648.052,267.48 649.752,269.851 652.718,269.851 C655.71,269.851 657.771,268.151 657.771,265.081 C657.771,260.026 651.271,258.502 651.271,255.33 C651.271,254.169 651.841,253.499 652.873,253.499 C653.595,253.499 654.448,253.963 654.577,255.562 L657.619,255.227 Z M669.442,269.593 L669.442,266.809 L663.717,266.809 L663.717,261.34 L667.843,261.34 L667.843,258.556 L663.717,258.556 L663.717,253.757 L669.081,253.757 L669.081,250.973 L660.522,250.973 L660.522,269.593 L669.442,269.593 Z M681.358,255.227 C681.074,252.596 679.529,250.715 676.924,250.715 C673.777,250.715 671.974,252.389 671.974,255.356 C671.974,260.697 678.474,261.677 678.474,265.365 C678.474,266.474 677.724,267.067 676.614,267.067 C675.581,267.067 674.833,266.139 674.704,264.256 L671.665,264.695 C671.794,267.48 673.494,269.851 676.46,269.851 C679.452,269.851 681.513,268.151 681.513,265.081 C681.513,260.026 675.014,258.502 675.014,255.33 C675.014,254.169 675.581,253.499 676.614,253.499 C677.337,253.499 678.188,253.963 678.319,255.562 L681.358,255.227 Z M693.545,255.227 C693.262,252.596 691.716,250.715 689.111,250.715 C685.964,250.715 684.159,252.389 684.159,255.356 C684.159,260.697 690.658,261.677 690.658,265.365 C690.658,266.474 689.91,267.067 688.802,267.067 C687.767,267.067 687.019,266.139 686.891,264.256 L683.849,264.695 C683.978,267.48 685.681,269.851 688.646,269.851 C691.639,269.851 693.7,268.151 693.7,265.081 C693.7,260.026 687.2,258.502 687.2,255.33 C687.2,254.169 687.767,253.499 688.802,253.499 C689.523,253.499 690.375,253.963 690.504,255.562 L693.545,255.227 L693.545,255.227 Z"/>
    <path fill="#93704E" d="M543.01,235.026 C535.613,222.882 538.149,206.844 549.505,197.649 C561.883,187.626 580.041,189.535 590.063,201.913 C600.085,214.289 598.177,232.447 585.801,242.469 C574.446,251.664 558.231,250.811 547.891,241.052 L497.989,284.826 L489.817,274.735 L543.01,235.026 Z M550.775,233.751 C558.328,243.079 572.011,244.517 581.339,236.965 C590.665,229.412 592.102,215.729 584.55,206.401 C576.997,197.075 563.314,195.637 553.988,203.19 C544.66,210.742 543.223,224.425 550.775,233.751 L550.775,233.751 Z"/>
    <path fill="#CBCCCB" d="M400.1,523.831 L395.5,507.262 C352.032,519.328 305.022,517.078 263.135,500.923 L256.947,516.966 C283.054,527.034 310.987,532.11 338.974,532.11 C359.559,532.11 380.179,529.361 400.1,523.831 Z M527.874,178.509 C500.256,138.302 459.743,107.491 413.8,91.752 L408.227,108.019 C450.701,122.569 488.159,151.06 513.7,188.244 L527.874,178.509 Z M564.147,284.849 L547.032,286.502 C551.369,331.404 540.988,377.306 517.804,415.755 L532.528,424.634 C557.607,383.045 568.837,333.402 564.147,284.849 Z M176.475,438.243 C148.166,403.395 131.498,359.384 129.543,314.315 L112.364,315.06 C114.478,363.793 132.507,411.39 163.129,449.085 L176.475,438.243 Z M164.803,188.244 L150.63,178.509 C178.248,138.302 218.76,107.491 264.704,91.752 L270.276,108.019 C227.803,122.569 190.345,151.06 164.803,188.244 L164.803,188.244 Z"/>
    <g transform="translate(146)">
      <mask id="d" fill="white">
        <use xlink:href="#c"/>
      </mask>
      <path fill="#00AEB5" d="M87.511,312.285 L98.07,312.285 L98.07,250.799 L87.511,250.799 L87.511,312.285 Z M137.219,250.799 L129.724,286.736 L129.554,286.736 L122.059,250.799 L108.179,250.799 L108.179,312.285 L117.376,312.285 L117.376,264.254 L117.546,264.254 L127.084,312.285 L132.193,312.285 L141.732,264.254 L141.902,264.254 L141.902,312.285 L151.099,312.285 L151.099,250.799 L137.219,250.799 Z M171.197,259.484 L175.286,259.484 C182.183,259.484 184.312,261.614 184.312,268.937 C184.312,276.262 182.183,278.39 175.286,278.39 L171.197,278.39 L171.197,259.484 Z M171.197,312.285 L171.197,287.077 L175.795,287.077 C188.826,287.077 194.873,282.052 194.873,268.937 C194.873,255.824 188.826,250.799 175.795,250.799 L160.638,250.799 L160.638,312.285 L171.197,312.285 Z M212.439,263.061 L212.609,263.061 L216.783,289.461 L208.266,289.461 L212.439,263.061 Z M206.732,298.658 L218.315,298.658 L220.187,312.285 L230.408,312.285 L219.081,250.799 L205.968,250.799 L194.641,312.285 L204.858,312.285 L206.732,298.658 Z M267.985,271.323 L267.985,266.809 C267.985,257.612 262.876,249.948 252.316,249.948 C241.245,249.948 236.136,257.015 236.136,265.702 L236.136,297.382 C236.136,306.067 241.245,313.136 252.316,313.136 C262.876,313.136 267.985,306.067 267.985,297.382 L267.985,290.312 L257.425,290.312 L257.425,297.721 C257.425,301.725 256.148,303.939 252.316,303.939 C248.059,303.939 246.695,301.725 246.695,297.126 L246.695,265.958 C246.695,261.359 248.059,259.145 252.316,259.145 C255.042,259.145 257.425,261.359 257.425,266.553 L257.425,271.323 L267.985,271.323 Z M283.529,312.285 L294.089,312.285 L294.089,259.996 L304.309,259.996 L304.309,250.799 L273.31,250.799 L273.31,259.996 L283.529,259.996 L283.529,312.285 Z M89.49,331.434 L82.333,331.434 L82.333,325.005 L104.046,325.005 L104.046,331.434 L96.889,331.434 L96.889,367.981 L89.49,367.981 L89.49,331.434 Z M116.905,344.291 L119.531,344.291 C123.527,344.291 125.018,342.802 125.018,337.684 C125.018,332.564 123.527,331.077 119.531,331.077 L116.905,331.077 L116.905,344.291 Z M116.905,367.981 L109.509,367.981 L109.509,325.005 L119.889,325.005 C128.181,325.005 132.415,328.517 132.415,337.684 C132.415,344.588 129.73,347.386 127.226,348.517 L133.489,367.981 L125.974,367.981 L120.725,350.185 C119.77,350.303 118.219,350.363 116.905,350.363 L116.905,367.981 Z M147.144,352.029 L153.108,352.029 L150.187,333.576 L150.067,333.576 L147.144,352.029 Z M144.759,367.981 L137.601,367.981 L145.534,325.005 L154.721,325.005 L162.654,367.981 L155.497,367.981 L154.184,358.457 L146.071,358.457 L144.759,367.981 Z M168.117,367.981 L168.117,325.005 L174.976,325.005 L183.984,349.589 L184.104,349.589 L184.104,325.005 L190.784,325.005 L190.784,367.981 L184.343,367.981 L174.918,341.136 L174.798,341.136 L174.798,367.981 L168.117,367.981 Z M211.394,335.599 C211.098,331.908 209.129,330.838 207.459,330.838 C205.073,330.838 203.76,332.386 203.76,335.064 C203.76,342.387 218.793,345.899 218.793,357.566 C218.793,364.648 214.021,368.576 207.1,368.576 C200.242,368.576 196.304,363.1 196.006,356.671 L203.045,355.659 C203.343,360.005 205.073,362.148 207.459,362.148 C210.023,362.148 211.754,360.779 211.754,358.219 C211.754,349.707 196.721,347.447 196.721,335.124 C196.721,328.279 200.897,324.409 208.175,324.409 C214.199,324.409 217.778,328.756 218.434,334.825 L211.394,335.599 Z M224.869,367.981 L224.869,325.005 L245.509,325.005 L245.509,331.434 L232.267,331.434 L232.267,342.505 L242.169,342.505 L242.169,348.934 L232.267,348.934 L232.267,367.981 L224.869,367.981 Z M250.992,367.981 L250.992,325.005 L270.796,325.005 L270.796,331.434 L258.388,331.434 L258.388,342.505 L267.934,342.505 L267.934,348.934 L258.388,348.934 L258.388,361.552 L271.63,361.552 L271.63,367.981 L250.992,367.981 Z M285.219,344.291 L287.843,344.291 C291.841,344.291 293.332,342.802 293.332,337.684 C293.332,332.564 291.841,331.077 287.843,331.077 L285.219,331.077 L285.219,344.291 Z M285.219,367.981 L277.822,367.981 L277.822,325.005 L288.201,325.005 C296.494,325.005 300.728,328.517 300.728,337.684 C300.728,344.588 298.044,347.386 295.539,348.517 L301.803,367.981 L294.286,367.981 L289.035,350.185 C288.081,350.303 286.531,350.363 285.219,350.363 L285.219,367.981 L285.219,367.981 Z" mask="url(#d)"/>
      <path fill="#343534" d="M156.969,19.37 L160.163,19.37 L160.163,0.75 L156.969,0.75 L156.969,19.37 Z M166.422,19.37 L166.422,7.74 L166.474,7.74 L170.553,19.37 L173.334,19.37 L173.334,0.75 L170.449,0.75 L170.449,11.402 L170.398,11.402 L166.499,0.75 L163.537,0.75 L163.537,19.37 L166.422,19.37 Z M185.712,5.004 C185.429,2.373 183.883,0.492 181.278,0.492 C178.129,0.492 176.326,2.169 176.326,5.133 C176.326,10.473 182.825,11.454 182.825,15.142 C182.825,16.251 182.077,16.844 180.969,16.844 C179.934,16.844 179.186,15.916 179.058,14.033 L176.017,14.471 C176.145,17.257 177.846,19.628 180.813,19.628 C183.806,19.628 185.867,17.927 185.867,14.858 C185.867,9.803 179.367,8.279 179.367,5.107 C179.367,3.946 179.934,3.275 180.969,3.275 C181.69,3.275 182.542,3.74 182.671,5.339 L185.712,5.004 Z M191.812,3.379 L193.05,3.379 C195.142,3.379 195.786,4.023 195.786,6.243 C195.786,8.462 195.142,9.107 193.05,9.107 L191.812,9.107 L191.812,3.379 Z M191.812,19.37 L191.812,11.735 L193.205,11.735 C197.153,11.735 198.982,10.216 198.982,6.243 C198.982,2.272 197.153,0.75 193.205,0.75 L188.616,0.75 L188.616,19.37 L191.812,19.37 Z M202.015,19.37 L205.209,19.37 L205.209,0.75 L202.015,0.75 L202.015,19.37 Z M211.777,3.379 L212.912,3.379 C214.642,3.379 215.287,4.023 215.287,6.241 C215.287,8.46 214.642,9.104 212.912,9.104 L211.777,9.104 L211.777,3.379 Z M211.777,11.735 C212.345,11.735 213.016,11.709 213.43,11.658 L215.7,19.37 L218.947,19.37 L216.241,10.936 C217.322,10.446 218.483,9.233 218.483,6.241 C218.483,2.272 216.654,0.75 213.067,0.75 L208.581,0.75 L208.581,19.37 L211.777,19.37 L211.777,11.735 Z M230.681,19.37 L230.681,16.586 L224.955,16.586 L224.955,11.116 L229.082,11.116 L229.082,8.333 L224.955,8.333 L224.955,3.533 L230.319,3.533 L230.319,0.75 L221.759,0.75 L221.759,19.37 L230.681,19.37 L230.681,19.37 Z" mask="url(#d)"/>
      <path fill="#F8C73E" d="M211.906,133.898 L235.546,140.911 L229.96,118.625 L230.781,117.366 C235.622,109.952 238.182,101.517 238.182,92.973 C238.182,68.183 218.014,48.015 193.224,48.015 C168.433,48.015 148.263,68.183 148.263,92.973 C148.263,117.764 168.433,137.933 193.224,137.933 C199.311,137.933 205.214,136.738 210.768,134.381 L211.906,133.898 Z M245.149,150.933 L212.296,141.188 C206.227,143.593 199.817,144.811 193.224,144.811 C164.64,144.811 141.386,121.556 141.386,92.973 C141.386,64.39 164.64,41.137 193.224,41.137 C221.806,41.137 245.059,64.39 245.059,92.973 C245.059,102.363 242.399,111.62 237.355,119.84 L245.149,150.933 Z M199.741,118.282 L185.951,115.786 C185.935,115.621 185.927,115.443 185.927,115.266 L185.927,113.931 L200.386,116.541 C200.264,117.156 200.042,117.744 199.741,118.282 L199.741,118.282 Z M200.521,113.356 L185.927,110.733 L185.927,112.58 L200.521,115.213 L200.521,113.356 Z M218.328,88.804 C218.5,89.464 218.646,90.128 218.765,90.809 L224.701,89.453 L224.248,87.448 L218.328,88.804 Z M213.005,78.497 C213.447,79.018 213.86,79.568 214.262,80.122 L218.92,76.408 L217.642,74.801 L213.005,78.497 Z M203.681,71.529 C204.307,71.809 204.928,72.099 205.529,72.424 L208.067,67.159 L206.208,66.27 L203.681,71.529 Z M192.203,69.376 C192.545,69.362 192.88,69.322 193.226,69.322 C193.57,69.322 193.905,69.362 194.249,69.376 L194.249,63.54 L192.203,63.54 L192.203,69.376 Z M180.928,72.421 C181.525,72.094 182.144,71.806 182.776,71.527 L180.242,66.27 L178.39,67.159 L180.928,72.421 Z M172.188,80.116 C172.588,79.561 173.008,79.013 173.45,78.493 L168.816,74.801 L167.531,76.408 L172.188,80.116 Z M167.685,90.807 C167.804,90.128 167.952,89.464 168.122,88.804 L162.205,87.448 L161.745,89.453 L167.685,90.807 Z M186.225,117.192 C186.705,118.643 187.693,119.868 188.985,120.644 L188.985,123.481 L197.456,123.481 L197.456,120.644 C197.993,120.322 198.467,119.932 198.884,119.479 L186.225,117.192 Z M176.754,92.04 C176.754,98.523 180.491,104.114 185.927,106.806 L185.927,109.379 L200.518,112.012 L200.518,106.806 C205.955,104.114 209.692,98.519 209.692,92.04 C209.692,82.945 202.311,75.575 193.226,75.575 C184.124,75.575 176.754,82.945 176.754,92.04 L176.754,92.04 Z" mask="url(#d)"/>
      <path fill="#343534" d="M33.591,544.434 C33.308,541.803 31.762,539.924 29.157,539.924 C26.011,539.924 24.205,541.597 24.205,544.563 C24.205,549.905 30.704,550.885 30.704,554.573 C30.704,555.682 29.956,556.275 28.848,556.275 C27.814,556.275 27.066,555.346 26.937,553.464 L23.895,553.902 C24.024,556.688 25.726,559.058 28.693,559.058 C31.684,559.058 33.746,557.359 33.746,554.29 C33.746,549.234 27.246,547.711 27.246,544.538 C27.246,543.377 27.814,542.707 28.848,542.707 C29.57,542.707 30.421,543.171 30.55,544.77 L33.591,544.434 Z M45.417,558.801 L45.417,556.017 L39.691,556.017 L39.691,550.548 L43.818,550.548 L43.818,547.764 L39.691,547.764 L39.691,542.965 L45.056,542.965 L45.056,540.181 L36.495,540.181 L36.495,558.801 L45.417,558.801 Z M50.513,558.801 L53.709,558.801 L53.709,542.965 L56.804,542.965 L56.804,540.181 L47.418,540.181 L47.418,542.965 L50.513,542.965 L50.513,558.801 Z M59.282,554.109 C59.282,557.307 61.137,559.058 64.181,559.058 C67.224,559.058 69.079,557.307 69.079,554.109 L69.079,540.181 L65.885,540.181 L65.885,554.238 C65.885,555.605 65.344,556.275 64.181,556.275 C63.02,556.275 62.476,555.605 62.476,554.238 L62.476,540.181 L59.282,540.181 L59.282,554.109 Z M75.443,542.809 L76.681,542.809 C78.772,542.809 79.417,543.455 79.417,545.675 C79.417,547.893 78.772,548.538 76.681,548.538 L75.443,548.538 L75.443,542.809 Z M75.443,558.801 L75.443,551.167 L76.836,551.167 C80.784,551.167 82.613,549.647 82.613,545.675 C82.613,541.701 80.784,540.181 76.836,540.181 L72.247,540.181 L72.247,558.801 L75.443,558.801 Z M4.556,571.551 C4.556,570.39 5.019,569.719 5.821,569.719 C6.569,569.719 6.984,570.287 6.984,571.731 C6.984,573.021 6.183,574.156 5.434,575.135 C4.994,574.052 4.556,572.737 4.556,571.551 L4.556,571.551 Z M10.023,577.718 C9.766,578.903 9.327,580.039 8.889,581.174 C7.988,580.012 7.214,578.723 6.569,577.382 C8.014,575.781 9.766,574.052 9.766,571.731 C9.766,569.41 8.323,567.864 5.976,567.864 C3.294,567.864 1.927,569.719 1.927,572.247 C1.927,573.872 2.726,575.884 3.397,577.382 C2.107,578.774 0.949,580.709 0.949,582.643 C0.949,585.222 2.701,587 5.409,587 C7.008,587 8.039,586.561 9.069,585.584 C10.049,586.484 11.313,586.974 12.68,587 L12.68,584.165 C12.035,584.062 11.391,583.726 10.9,583.288 C11.571,581.689 12.293,580.116 12.654,578.414 L10.023,577.718 Z M3.885,582.231 C3.885,581.251 4.143,580.76 4.684,579.935 C5.357,581.302 6.26,582.514 7.24,583.676 C6.75,584.088 6.389,584.217 5.77,584.217 C4.659,584.217 3.885,583.314 3.885,582.231 L3.885,582.231 Z M30.09,572.376 C29.806,569.745 28.261,567.864 25.656,567.864 C22.507,567.864 20.704,569.539 20.704,572.505 C20.704,577.846 27.203,578.826 27.203,582.514 C27.203,583.624 26.455,584.217 25.346,584.217 C24.312,584.217 23.564,583.288 23.435,581.405 L20.394,581.844 C20.523,584.63 22.223,587 25.191,587 C28.183,587 30.245,585.3 30.245,582.231 C30.245,577.176 23.745,575.651 23.745,572.479 C23.745,571.318 24.312,570.648 25.346,570.648 C26.068,570.648 26.919,571.112 27.048,572.712 L30.09,572.376 Z M32.994,582.051 C32.994,585.249 34.849,587 37.892,587 C40.937,587 42.792,585.249 42.792,582.051 L42.792,568.123 L39.596,568.123 L39.596,582.179 C39.596,583.546 39.055,584.217 37.892,584.217 C36.731,584.217 36.189,583.546 36.189,582.179 L36.189,568.123 L32.994,568.123 L32.994,582.051 Z M49.154,570.751 L50.394,570.751 C52.484,570.751 53.131,571.396 53.131,573.616 C53.131,575.835 52.484,576.479 50.394,576.479 L49.154,576.479 L49.154,570.751 Z M49.154,586.742 L49.154,579.108 L50.549,579.108 C54.496,579.108 56.325,577.588 56.325,573.616 C56.325,569.642 54.496,568.123 50.549,568.123 L45.96,568.123 L45.96,586.742 L49.154,586.742 Z M62.332,570.751 L63.57,570.751 C65.662,570.751 66.306,571.396 66.306,573.616 C66.306,575.835 65.662,576.479 63.57,576.479 L62.332,576.479 L62.332,570.751 Z M62.332,586.742 L62.332,579.108 L63.725,579.108 C67.673,579.108 69.502,577.588 69.502,573.616 C69.502,569.642 67.673,568.123 63.725,568.123 L59.136,568.123 L59.136,586.742 L62.332,586.742 Z M72.313,582.231 C72.313,584.861 73.859,587 77.212,587 C80.565,587 82.112,584.861 82.112,582.231 L82.112,572.634 C82.112,570.003 80.565,567.864 77.212,567.864 C73.859,567.864 72.313,570.003 72.313,572.634 L72.313,582.231 Z M75.51,572.712 C75.51,571.318 75.922,570.648 77.212,570.648 C78.504,570.648 78.916,571.318 78.916,572.712 L78.916,582.153 C78.916,583.546 78.504,584.217 77.212,584.217 C75.922,584.217 75.51,583.546 75.51,582.153 L75.51,572.712 Z M88.438,570.751 L89.575,570.751 C91.303,570.751 91.95,571.396 91.95,573.614 C91.95,575.832 91.303,576.477 89.575,576.477 L88.438,576.477 L88.438,570.751 Z M88.438,579.108 C89.006,579.108 89.679,579.082 90.091,579.03 L92.363,586.742 L95.608,586.742 L92.902,578.308 C93.985,577.818 95.144,576.606 95.144,573.614 C95.144,569.642 93.315,568.123 89.729,568.123 L85.244,568.123 L85.244,586.742 L88.438,586.742 L88.438,579.108 Z M100.537,586.742 L103.73,586.742 L103.73,570.906 L106.826,570.906 L106.826,568.123 L97.441,568.123 L97.441,570.906 L100.537,570.906 L100.537,586.742 L100.537,586.742 Z" mask="url(#d)"/>
    </g>
    <path fill="#00AEB5" d="M183.437,516.398 L203.609,516.398 L203.609,477.35 L183.437,477.35 L183.437,516.398 Z M158.384,516.396 L178.556,516.396 L178.556,493.76 L158.384,493.76 L158.384,516.396 Z M218.577,433.994 L195.766,460.942 L208.49,460.942 L208.49,516.396 L228.662,516.396 L228.662,460.942 L241.391,460.942 L218.577,433.994 L218.577,433.994 Z"/>
  </g>
</svg>
