<svg xmlns="http://www.w3.org/2000/svg" width="421" height="572" viewBox="0 0 421 572">
  <g fill="none" fill-rule="evenodd">
    <path fill="#EB8B2D" d="M28.336,543.664 L392.378,543.664 L392.378,28.353 L28.336,28.353 L28.336,543.664 Z M0,572 L420.714,572 L420.714,0.017 L0,0.017 L0,572 Z"/>
    <polygon fill="#343534" points="51.58 328.742 367.734 328.742 367.734 312.55 51.58 312.55"/>
    <polygon fill="#343534" points="51.58 266.796 367.734 266.796 367.734 250.604 51.58 250.604"/>
    <polygon fill="#343534" points="51.58 204.851 190.287 204.851 190.287 188.659 51.58 188.659"/>
    <polygon fill="#343534" points="51.58 142.906 190.287 142.906 190.287 126.714 51.58 126.714"/>
    <polygon fill="#343534" points="51.58 80.961 190.287 80.961 190.287 64.769 51.58 64.769"/>
    <polygon fill="#343534" points="51.58 390.687 367.734 390.687 367.734 374.496 51.58 374.496"/>
    <polygon fill="#343534" points="51.58 452.632 367.734 452.632 367.734 436.441 51.58 436.441"/>
    <polygon fill="#343534" points="51.58 514.578 367.734 514.578 367.734 498.386 51.58 498.386"/>
    <polygon fill="#EB8B2D" points="216.473 205.097 367.734 205.097 367.734 62.089 216.473 62.089"/>
  </g>
</svg>
