<svg xmlns="http://www.w3.org/2000/svg" xmlns:xlink="http://www.w3.org/1999/xlink" width="643" height="589" viewBox="0 0 643 589">
  <defs>
    <polygon id="a" points="0 590 642.508 590 642.508 .993 0 .993"/>
  </defs>
  <g fill="none" fill-rule="evenodd" transform="translate(0 -1)">
    <mask id="b" fill="white">
      <use xlink:href="#a"/>
    </mask>
    <path fill="#93704E" d="M0,529.86 L52.276,590 L348.891,310.885 C414.385,368.517 514.002,370.278 581.656,311.469 C655.398,247.351 663.214,135.6 599.108,61.846 C535.002,-11.896 423.24,-19.713 349.497,44.393 C281.845,103.203 269.723,202.098 317.671,274.977 L0,529.86 Z M365.013,265.504 C316.703,209.926 322.595,125.719 378.173,77.397 C433.739,29.099 517.957,34.979 566.268,90.557 C614.578,146.135 608.686,230.341 553.12,278.652 C497.541,326.962 413.324,321.082 365.013,265.504 L365.013,265.504 Z" mask="url(#b)"/>
  </g>
</svg>
