<svg xmlns="http://www.w3.org/2000/svg" xmlns:xlink="http://www.w3.org/1999/xlink" width="356" height="587" viewBox="0 0 356 587">
  <defs>
    <polygon id="a" points=".312 .228 224.795 .228 224.795 586.94 .312 586.94"/>
    <polygon id="c" points=".06 94.317 .06 .119 207.782 .119 207.782 94.317"/>
  </defs>
  <g fill="none" fill-rule="evenodd">
    <polyline fill="#7DC9CA" points="41.015 206.707 82.449 247.977 156.119 175.214 114.651 133.963 41.015 206.707"/>
    <g transform="translate(90)">
      <mask id="b" fill="white">
        <use xlink:href="#a"/>
      </mask>
      <polyline fill="#7DC9CA" points="224.795 206.707 183.361 247.977 109.691 175.214 151.159 133.963 224.795 206.707" mask="url(#b)"/>
      <polyline fill="#343534" points="104.36 527.754 109.543 587 168.571 581.81 163.401 522.57 104.36 527.754" mask="url(#b)"/>
      <polyline fill="#343534" points="7.243 581.773 66.278 586.978 71.434 527.425 12.406 522.201 7.243 581.773" mask="url(#b)"/>
      <polyline fill="#00AEB5" points="163.404 522.922 147.015 336.676 147.015 149.544 28.748 149.544 28.748 336.989 12.407 522.922 71.476 528.064 88.041 357.423 104.334 528.064 163.404 522.922" mask="url(#b)"/>
      <path fill="#F6CAB9" d="M170.201,117.781 C153.656,163.221 103.38,186.652 57.961,170.114 C12.495,153.576 -10.91,103.3 5.608,57.861 C22.146,12.415 72.381,-11.017 117.84,5.542 C163.307,22.06 186.739,72.322 170.201,117.781" mask="url(#b)"/>
    </g>
    <path fill="#F8C73E" d="M170.808,270.127 C157.702,268.302 146.722,259.883 141.307,248.331 C122.589,250.933 108.176,266.994 108.176,286.427 C108.176,307.686 125.402,324.912 146.654,324.912 C158.506,324.912 169.098,319.552 176.161,311.126 C170.562,304.443 167.184,295.834 167.184,286.427 C167.184,280.604 168.485,275.08 170.808,270.127"/>
    <path fill="#50B055" d="M211.021,248.33 C205.606,259.889 194.619,268.308 181.514,270.126 C183.83,275.078 185.13,280.602 185.13,286.433 C185.13,295.833 181.759,304.442 176.16,311.124 C183.216,319.55 193.815,324.911 205.667,324.911 C226.919,324.911 244.145,307.685 244.145,286.433 C244.145,267 229.739,250.938 211.021,248.33"/>
    <path fill="#DE492A" d="M176.159,261.737 C183.216,253.311 193.815,247.951 205.666,247.951 C207.485,247.951 209.27,248.087 211.02,248.332 C213.343,243.38 214.644,237.856 214.644,232.025 C214.644,210.773 197.417,193.547 176.166,193.547 C154.914,193.547 137.681,210.773 137.681,232.025 C137.681,237.856 138.989,243.38 141.305,248.325 C143.056,248.087 144.84,247.951 146.652,247.951 C158.504,247.951 169.103,253.311 176.159,261.737"/>
    <path fill="#EB8B2D" d="M170.808,270.127 C172.231,267.096 174.029,264.276 176.161,261.736 C169.098,253.31 158.506,247.949 146.654,247.949 C144.835,247.949 143.058,248.085 141.307,248.331 C146.722,259.883 157.702,268.302 170.808,270.127"/>
    <path fill="#6D543A" d="M176.159,261.737 C178.285,264.278 180.089,267.098 181.513,270.129 C194.619,268.303 205.605,259.884 211.02,248.332 C209.27,248.087 207.485,247.951 205.666,247.951 C193.815,247.951 183.216,253.311 176.159,261.737"/>
    <path fill="#5C964F" d="M185.133,286.431 C185.133,280.6 183.832,275.083 181.509,270.131 C180.093,267.093 178.288,264.28 176.156,261.739 C174.031,264.273 172.226,267.093 170.809,270.131 C168.486,275.076 167.185,280.6 167.185,286.431 C167.185,295.83 170.557,304.44 176.156,311.122 C181.754,304.44 185.133,295.83 185.133,286.431"/>
    <path fill="#FFFFFE" d="M186.414 220.285C182.714 218.576 177.878 220.183 176.162 223.875 174.452 220.183 169.616 218.569 165.917 220.285 161.974 222.111 160.094 226.783 163.2 232.287 165.414 236.21 169.33 239.16 176.162 244.452 182.994 239.16 186.917 236.204 189.124 232.287 192.237 226.783 190.35 222.111 186.414 220.285M140.635 302.609L149.64 300.981C149.654 300.872 149.654 300.757 149.654 300.641L149.654 299.769 140.213 301.472C140.295 301.874 140.438 302.255 140.635 302.609"/>
    <polyline fill="#FFFFFE" points="140.124 299.393 140.124 300.606 149.661 298.882 149.661 297.684 140.124 299.393"/>
    <path fill="#FFFFFE" d="M128.497 283.356L124.628 282.471 124.335 283.779 128.21 284.665C128.286 284.222 128.388 283.786 128.497 283.356M131.971 276.627L128.946 274.209 128.108 275.258 131.153 277.689C131.412 277.322 131.685 276.967 131.971 276.627M138.067 272.077L136.412 268.637 135.199 269.223 136.854 272.663C137.249 272.445 137.651 272.261 138.067 272.077M145.56 270.667L145.56 266.859 144.218 266.859 144.218 270.667C144.442 270.66 144.667 270.633 144.892 270.633 145.117 270.633 145.334 270.66 145.56 270.667M152.922 272.656L154.578 269.223 153.372 268.637 151.717 272.077C152.125 272.254 152.527 272.445 152.922 272.656M158.631 277.683L161.668 275.265 160.831 274.209 157.807 276.62C158.099 276.96 158.365 277.322 158.631 277.683M165.449 283.779L165.149 282.471 161.287 283.356C161.396 283.786 161.491 284.222 161.573 284.665L165.449 283.779M149.461 301.898L141.192 303.391C141.464 303.69 141.778 303.942 142.125 304.153L142.125 306.006 147.656 306.006 147.656 304.153C148.5 303.643 149.147 302.846 149.461 301.898M155.65 285.472C155.65 279.532 150.834 274.716 144.888 274.716 138.955 274.716 134.132 279.532 134.132 285.472 134.132 289.702 136.578 293.353 140.126 295.116L140.126 298.516 149.656 296.799 149.656 295.116C153.205 293.353 155.65 289.702 155.65 285.472M207.782 276.897C207.782 278.334 204.499 279.499 200.439 279.499 196.386 279.499 193.103 278.334 193.103 276.897 193.103 275.46 196.386 274.294 200.439 274.294 204.499 274.294 207.782 275.46 207.782 276.897"/>
    <path fill="#FFFFFE" d="M207.782,278.738 C207.782,280.175 204.499,281.34 200.439,281.34 C196.386,281.34 193.103,280.175 193.103,278.738 L193.103,281.456 C193.103,282.893 196.386,284.058 200.439,284.058 C204.499,284.058 207.782,282.893 207.782,281.456 L207.782,278.738"/>
    <path fill="#FFFFFE" d="M207.782 283.549C207.782 284.987 204.499 286.151 200.439 286.151 196.386 286.151 193.103 284.987 193.103 283.549L193.103 286.267C193.103 287.705 196.386 288.869 200.439 288.869 204.499 288.869 207.782 287.705 207.782 286.267L207.782 283.549M224.382 286.591C224.382 288.029 221.092 289.193 217.04 289.193 212.987 289.193 209.697 288.029 209.697 286.591 209.697 285.154 212.987 283.989 217.04 283.989 221.092 283.989 224.382 285.154 224.382 286.591"/>
    <path fill="#FFFFFE" d="M224.382,288.433 C224.382,289.87 221.092,291.035 217.04,291.035 C212.987,291.035 209.697,289.87 209.697,288.433 L209.697,291.15 C209.697,292.587 212.987,293.752 217.04,293.752 C221.092,293.752 224.382,292.587 224.382,291.15 L224.382,288.433"/>
    <path fill="#FFFFFE" d="M224.382 293.244C224.382 294.681 221.092 295.846 217.04 295.846 212.987 295.846 209.697 294.681 209.697 293.244L209.697 295.962C209.697 297.406 212.987 298.564 217.04 298.564 221.092 298.564 224.382 297.406 224.382 295.962L224.382 293.244M207.782 288.293C207.782 289.73 204.499 290.895 200.439 290.895 196.386 290.895 193.103 289.73 193.103 288.293L193.103 291.011C193.103 292.448 196.386 293.613 200.439 293.613 204.499 293.613 207.782 292.448 207.782 291.011L207.782 288.293"/>
    <g transform="translate(0 206)">
      <mask id="d" fill="white">
        <use xlink:href="#c"/>
      </mask>
      <path fill="#FFFFFE" d="M207.782,87.176 C207.782,88.613 204.499,89.778 200.439,89.778 C196.386,89.778 193.103,88.613 193.103,87.176 L193.103,89.894 C193.103,91.331 196.386,92.496 200.439,92.496 C204.499,92.496 207.782,91.331 207.782,89.894 L207.782,87.176" mask="url(#d)"/>
      <polyline fill="#FAD9C6" points="0 41.217 53.016 94.317 94.608 53.192 41.606 .119 0 41.217" mask="url(#d)"/>
    </g>
    <polyline fill="#F6CAB9" points="52.028 299.316 93.33 340.684 134.943 299.579 93.593 258.177 52.028 299.316"/>
    <polyline fill="#FAD9C6" points="355.81 247.217 302.794 300.317 261.203 259.192 314.205 206.119 355.81 247.217"/>
    <polyline fill="#F6CAB9" points="303.783 299.316 262.479 340.684 220.867 299.579 262.217 258.177 303.783 299.316"/>
  </g>
</svg>
