<svg xmlns="http://www.w3.org/2000/svg" xmlns:xlink="http://www.w3.org/1999/xlink" width="551" height="588" viewBox="0 0 551 588">
  <defs>
    <polygon id="a" points="0 225.987 0 451.94 550.973 451.94 550.973 .033 0 .033"/>
  </defs>
  <g fill="none" fill-rule="evenodd">
    <path fill="#50B055" d="M344.425,195.899 C344.425,199.704 335.726,202.783 324.997,202.783 C314.267,202.783 305.569,199.704 305.569,195.899 L305.569,203.098 C305.569,206.903 314.267,209.982 324.997,209.982 C335.726,209.982 344.425,206.903 344.425,203.098 L344.425,195.899 Z M344.425,182.978 C344.425,186.776 335.726,189.862 324.997,189.862 C314.267,189.862 305.569,186.776 305.569,182.978 L305.569,190.177 C305.569,193.982 314.267,197.061 324.997,197.061 C335.726,197.061 344.425,193.982 344.425,190.177 L344.425,182.978 Z M388.357,196.08 C388.357,199.885 379.659,202.964 368.93,202.964 C358.199,202.964 349.502,199.885 349.502,196.08 L349.502,203.279 C349.502,207.083 358.199,210.163 368.93,210.163 C379.659,210.163 388.357,207.083 388.357,203.279 L388.357,196.08 Z M388.357,183.346 C388.357,187.144 379.659,190.23 368.93,190.23 C358.199,190.23 349.502,187.144 349.502,183.346 L349.502,190.545 C349.502,194.343 358.199,197.429 368.93,197.429 C379.659,197.429 388.357,194.343 388.357,190.545 L388.357,183.346 Z M388.357,178.475 C388.357,174.677 379.659,171.59 368.93,171.59 C358.199,171.59 349.502,174.677 349.502,178.475 C349.502,182.279 358.199,185.359 368.93,185.359 C379.659,185.359 388.357,182.279 388.357,178.475 L388.357,178.475 Z M344.425,170.424 C344.425,174.229 335.726,177.309 324.997,177.309 C314.267,177.309 305.569,174.229 305.569,170.424 L305.569,177.623 C305.569,181.421 314.267,184.507 324.997,184.507 C335.726,184.507 344.425,181.421 344.425,177.623 L344.425,170.424 Z M344.425,157.691 C344.425,161.489 335.726,164.575 324.997,164.575 C314.267,164.575 305.569,161.489 305.569,157.691 L305.569,164.89 C305.569,168.694 314.267,171.774 324.997,171.774 C335.726,171.774 344.425,168.694 344.425,164.89 L344.425,157.691 Z M344.425,152.82 C344.425,156.618 335.726,159.704 324.997,159.704 C314.267,159.704 305.569,156.618 305.569,152.82 C305.569,149.022 314.267,145.935 324.997,145.935 C335.726,145.935 344.425,149.022 344.425,152.82 L344.425,152.82 Z"/>
    <path fill="#F8C73E" d="M87.332,366.329 C87.332,351.815 75.569,340.052 61.047,340.052 C46.547,340.052 34.77,351.815 34.77,366.329 C34.77,376.662 40.73,385.592 49.407,389.89 L49.407,398.197 L72.687,393.996 L72.687,389.89 C81.365,385.592 87.332,376.669 87.332,366.329 L87.332,366.329 Z M72.213,406.462 L52.012,410.103 C52.682,410.835 53.442,411.458 54.297,411.964 L54.297,416.495 L67.812,416.495 L67.812,411.964 C69.872,410.726 71.453,408.775 72.213,406.462 L72.213,406.462 Z M20.993,361.161 C20.719,362.215 20.479,363.276 20.295,364.364 L10.824,362.201 L11.542,358.998 L20.993,361.161 L20.993,361.161 Z M29.485,344.717 C28.78,345.552 28.123,346.428 27.48,347.317 L20.048,341.385 L22.094,338.818 L29.485,344.717 L29.485,344.717 Z M44.369,333.604 C43.37,334.042 42.377,334.507 41.413,335.027 L37.361,326.631 L40.325,325.207 L44.369,333.604 L44.369,333.604 Z M62.681,330.162 C62.133,330.141 61.6,330.08 61.045,330.08 C60.498,330.08 59.957,330.141 59.41,330.162 L59.41,320.848 L62.681,320.848 L62.681,330.162 L62.681,330.162 Z M80.671,335.02 C79.713,334.5 78.721,334.042 77.715,333.597 L81.76,325.207 L84.723,326.631 L80.671,335.02 L80.671,335.02 Z M94.618,347.304 C93.975,346.414 93.31,345.545 92.599,344.71 L99.997,338.818 L102.042,341.385 L94.618,347.304 L94.618,347.304 Z M101.796,364.357 C101.611,363.276 101.372,362.215 101.105,361.161 L110.541,358.998 L111.274,362.201 L101.796,364.357 Z M49.406,403.305 L72.693,399.103 L72.693,396.154 L49.406,400.342 L49.406,403.305 Z M50.65,408.199 C50.171,407.337 49.815,406.406 49.617,405.421 L72.692,401.26 L72.692,403.389 C72.692,403.669 72.678,403.956 72.651,404.224 L50.65,408.199 L50.65,408.199 Z"/>
    <g transform="translate(0 136)">
      <mask id="b" fill="white">
        <use xlink:href="#a"/>
      </mask>
      <path fill="#DE492A" d="M228.98,121.549 C219.968,117.382 208.177,121.303 204.01,130.295 C199.836,121.303 188.052,117.375 179.039,121.549 C169.438,126.004 164.847,137.377 172.429,150.79 C177.814,160.343 187.36,167.528 204.01,180.435 C220.652,167.528 230.205,160.336 235.584,150.79 C243.166,137.377 238.574,126.004 228.98,121.549" mask="url(#b)"/>
      <path fill="#CBCCCB" d="M428.872,452 L550.974,452 L550.974,0.033 L428.872,0.033 L428.872,452 Z M285.919,452 L408.014,452 L408.014,102.837 L285.919,102.837 L285.919,452 Z M142.959,452 L265.055,452 L265.055,207.4 L142.959,207.4 L142.959,452 Z M0,452 L122.095,452 L122.095,310.19 L0,310.19 L0,452 Z" mask="url(#b)"/>
    </g>
    <path fill="#5E4E83" d="M475.449,0.247 L479.404,66.502 L500.317,66.502 L504.395,0.247 L475.449,0.247 Z M490.039,73.379 C497.512,73.379 503.56,79.429 503.56,86.901 C503.56,94.142 497.512,100.191 490.039,100.191 C482.806,100.191 476.757,94.142 476.757,86.901 C476.757,79.429 482.806,73.379 490.039,73.379 L490.039,73.379 Z"/>
  </g>
</svg>
