<svg xmlns="http://www.w3.org/2000/svg" xmlns:xlink="http://www.w3.org/1999/xlink" width="245" height="582" viewBox="0 0 245 582">
  <defs>
    <polygon id="a" points="0 581.94 244.029 581.94 244.029 .761 0 .761"/>
  </defs>
  <g fill="none" fill-rule="evenodd">
    <mask id="b" fill="white">
      <use xlink:href="#a"/>
    </mask>
    <path fill="#EB8B2D" d="M122.015,0.761 C78.557,0.761 43.33,35.999 43.33,79.434 C43.33,122.892 78.557,158.141 122.015,158.141 C165.472,158.141 200.699,122.892 200.699,79.434 C200.699,35.999 165.472,0.761 122.015,0.761 Z M244.029,472.858 L244.029,582 L0,582 L0,472.858 L53.49,472.858 L53.49,312.938 L0.172,312.938 L0.172,203.796 L190.539,203.796 L190.539,472.858 L244.029,472.858 L244.029,472.858 Z" mask="url(#b)"/>
  </g>
</svg>
