<svg xmlns="http://www.w3.org/2000/svg" xmlns:xlink="http://www.w3.org/1999/xlink" width="349" height="587" viewBox="0 0 349 587">
  <defs>
    <polygon id="a" points="116.335 46.94 .42 46.94 .42 .443 116.335 .443 116.335 46.94"/>
  </defs>
  <g fill="none" fill-rule="evenodd">
    <g transform="translate(116 540)">
      <mask id="b" fill="white">
        <use xlink:href="#a"/>
      </mask>
      <polyline fill="#343534" points="70.195 4.433 73.925 47 116.335 43.271 112.621 .708 70.195 4.433" mask="url(#b)"/>
      <polyline fill="#343534" points=".42 43.245 42.84 46.984 46.54 4.196 4.129 .443 .42 43.245" mask="url(#b)"/>
    </g>
    <polyline fill="#FCDA88" points="95.791 367.936 65.978 338.283 131.932 272.701 161.707 302.338 95.791 367.936"/>
    <polyline fill="#FAD9C6" points="67.29 337.007 97.089 366.63 58.862 404.655 29.093 375.018 67.29 337.007"/>
    <polyline fill="#FCDA88" points="252.989 367.936 282.759 338.283 216.848 272.701 187.049 302.338 252.989 367.936"/>
    <polyline fill="#FAD9C6" points="281.481 337.007 251.682 366.63 289.893 404.655 319.682 375.018 281.481 337.007"/>
    <polyline fill="#F8C73E" points="228.619 540.96 216.845 407.147 216.845 272.697 131.872 272.697 131.872 407.372 120.132 540.96 162.571 544.655 174.473 422.054 186.18 544.655 228.619 540.96"/>
    <polyline fill="#F6CAB9" points="0 403.942 29.799 433.565 59.607 403.942 29.799 374.285 0 403.942"/>
    <polyline fill="#F6CAB9" points="289.182 403.942 318.951 433.565 348.755 403.942 318.951 374.285 289.182 403.942"/>
    <path fill="#F6CAB9" d="M233.503,249.877 C221.615,282.523 185.494,299.358 152.861,287.476 C120.195,275.594 103.379,239.472 115.247,206.825 C127.129,174.173 163.222,157.338 195.884,169.235 C228.55,181.103 245.385,217.214 233.503,249.877"/>
    <path fill="#F8C73E" d="M160.78,118.466 L190.56,113.078 C190.599,112.715 190.618,112.334 190.618,111.952 L190.618,109.069 L159.385,114.702 C159.65,116.039 160.129,117.301 160.78,118.466"/>
    <polyline fill="#F8C73E" points="159.095 111.836 190.617 106.149 190.617 102.161 159.095 107.828 159.095 111.836"/>
    <path fill="#F8C73E" d="M242.846 56.199L241.853 51.868 229.074 54.795C229.441 56.224 229.765 57.658 230.019 59.121L242.846 56.199zM220.295 36.037L230.347 28.021 227.577 24.551 217.569 32.528C218.524 33.649 219.429 34.833 220.295 36.037L220.295 36.037zM201.414 19.417L206.896 8.053 202.893 6.125 197.421 17.484C198.786 18.086 200.122 18.708 201.414 19.417L201.414 19.417zM177.063 12.835L177.063.228 172.638.228 172.638 12.835C173.382 12.805 174.111 12.722 174.855 12.722 175.599 12.722 176.323 12.805 177.063 12.835L177.063 12.835zM152.27 17.489L146.808 6.125 142.796 8.053 148.276 19.422C149.578 18.717 150.919 18.091 152.27 17.489L152.27 17.489zM132.136 32.538L122.119 24.551 119.354 28.021 129.421 36.051C130.287 34.842 131.177 33.658 132.136 32.538L132.136 32.538zM120.636 54.795L107.848 51.868 106.869 56.199 119.686 59.126C119.946 57.658 120.264 56.224 120.636 54.795L120.636 54.795zM189.97 116.112L162.632 121.05C163.533 122.033 164.555 122.87 165.711 123.57L165.711 129.692 184.014 129.692 184.014 123.57C186.803 121.887 188.937 119.249 189.97 116.112M210.433 61.79C210.433 42.141 194.508 26.221 174.849 26.221 155.234 26.221 139.285 42.141 139.285 61.79 139.285 75.781 147.36 87.864 159.1 93.678L159.1 104.924 190.617 99.238 190.617 93.678C202.358 87.864 210.433 75.786 210.433 61.79"/>
  </g>
</svg>
