<svg xmlns="http://www.w3.org/2000/svg" xmlns:xlink="http://www.w3.org/1999/xlink" width="513" height="587" viewBox="0 0 513 587">
  <defs>
    <polygon id="a" points="161.371 64.94 .036 64.94 .036 .201 161.371 .201"/>
    <polygon id="c" points=".06 528.064 .06 .228 485.405 .228 485.405 528.064"/>
  </defs>
  <g fill="none" fill-rule="evenodd">
    <g transform="translate(162 522)">
      <mask id="b" fill="white">
        <use xlink:href="#a"/>
      </mask>
      <polyline fill="#343534" points="97.152 5.754 102.343 65 161.371 59.81 156.201 .57 97.152 5.754" mask="url(#b)"/>
      <polyline fill="#343534" points=".036 59.773 59.078 64.978 64.228 5.425 5.199 .201 .036 59.773" mask="url(#b)"/>
    </g>
    <polyline fill="#97CA8D" points="133.325 282.1 91.829 240.829 183.628 149.549 225.069 190.799 133.325 282.1"/>
    <polyline fill="#FAD9C6" points="93.655 239.053 135.131 280.282 81.926 333.207 40.492 291.957 93.655 239.053"/>
    <polyline fill="#97CA8D" points="352.118 282.1 393.553 240.829 301.816 149.549 260.341 190.799 352.118 282.1"/>
    <polyline fill="#FAD9C6" points="391.773 239.053 350.298 280.282 403.482 333.207 444.943 291.957 391.773 239.053"/>
    <mask id="d" fill="white">
      <use xlink:href="#c"/>
    </mask>
    <polyline fill="#50B055" points="318.199 522.921 301.811 336.675 301.811 149.544 183.544 149.544 183.544 336.988 167.203 522.921 226.272 528.064 242.838 357.423 259.13 528.064 318.199 522.921" mask="url(#d)"/>
    <polyline fill="#F6CAB9" points="0 332.215 41.475 373.444 82.964 332.215 41.475 290.938 0 332.215" mask="url(#d)"/>
    <polyline fill="#F6CAB9" points="402.489 332.214 443.923 373.45 485.405 332.214 443.923 290.943 402.489 332.214" mask="url(#d)"/>
    <path fill="#F6CAB9" d="M324.996,117.781 C308.451,163.221 258.176,186.652 212.757,170.114 C167.291,153.576 143.887,103.3 160.404,57.861 C176.943,12.415 227.177,-11.017 272.637,5.542 C318.104,22.06 341.534,72.322 324.996,117.781" mask="url(#d)"/>
    <path fill="#50B055" d="M443.379,492.067 C443.379,498.007 429.77,502.843 412.973,502.843 C396.183,502.843 382.546,498.007 382.546,492.067 C382.546,486.113 396.183,481.284 412.973,481.284 C429.77,481.284 443.379,486.113 443.379,492.067"/>
    <path fill="#50B055" d="M443.379,500.464 C443.379,506.41 429.77,511.247 412.973,511.247 C396.183,511.247 382.546,506.41 382.546,500.464 L382.546,511.737 C382.546,517.697 396.183,522.513 412.973,522.513 C429.77,522.513 443.379,517.697 443.379,511.737 L443.379,500.464"/>
    <path fill="#50B055" d="M443.379 520.144C443.379 526.104 429.77 530.92 412.973 530.92 396.183 530.92 382.546 526.104 382.546 520.144L382.546 531.417C382.546 537.37 396.183 542.199 412.973 542.199 429.77 542.199 443.379 537.37 443.379 531.417L443.379 520.144M512.165 532.225C512.165 538.185 498.549 543.007 481.745 543.007 464.955 543.007 451.332 538.185 451.332 532.225 451.332 526.278 464.955 521.456 481.745 521.456 498.549 521.456 512.165 526.278 512.165 532.225"/>
    <path fill="#50B055" d="M512.165,540.377 C512.165,546.323 498.549,551.152 481.745,551.152 C464.955,551.152 451.332,546.323 451.332,540.377 L451.332,551.649 C451.332,557.596 464.955,562.425 481.745,562.425 C498.549,562.425 512.165,557.596 512.165,551.649 L512.165,540.377"/>
    <path fill="#50B055" d="M512.165 559.791C512.165 565.751 498.549 570.566 481.745 570.566 464.955 570.566 451.332 565.751 451.332 559.791L451.332 571.057C451.332 577.017 464.955 581.832 481.745 581.832 498.549 581.832 512.165 577.017 512.165 571.057L512.165 559.791M443.379 539.827C443.379 545.78 429.77 550.603 412.973 550.603 396.183 550.603 382.546 545.78 382.546 539.827L382.546 551.093C382.546 557.053 396.183 561.876 412.973 561.876 429.77 561.876 443.379 557.053 443.379 551.093L443.379 539.827"/>
    <path fill="#50B055" d="M443.379,559.506 C443.379,565.459 429.77,570.281 412.973,570.281 C396.183,570.281 382.546,565.459 382.546,559.506 L382.546,570.772 C382.546,576.732 396.183,581.548 412.973,581.548 C429.77,581.548 443.379,576.732 443.379,570.772 L443.379,559.506"/>
  </g>
</svg>
