<svg xmlns="http://www.w3.org/2000/svg" xmlns:xlink="http://www.w3.org/1999/xlink" width="417" height="530" viewBox="0 0 417 530">
  <defs>
    <polygon id="a" points=".06 530 416.861 530 416.861 .008 .06 .008"/>
  </defs>
  <g fill="none" fill-rule="evenodd">
    <mask id="b" fill="white">
      <use xlink:href="#a"/>
    </mask>
    <path fill="#93704E" d="M375.033,151.654 C366.407,203.847 338.274,261.023 302.795,284.238 C317.623,226.842 327.753,153.316 331.206,66.939 C342.212,68.491 354.497,72.905 363.61,83.646 C376.019,98.275 379.969,121.791 375.033,151.654 Z M41.79,151.659 C36.863,121.793 40.82,98.274 53.234,83.645 C62.347,72.905 74.631,68.492 85.635,66.94 C89.086,153.31 99.211,226.833 114.036,284.227 C78.564,261.005 50.426,203.837 41.79,151.659 Z M393.94,57.918 C379.003,40.311 357.412,29.571 332.305,27.03 C332.443,18.138 332.519,9.137 332.519,0.008 L84.323,0.008 C84.323,9.137 84.4,18.138 84.537,27.03 C59.434,29.57 37.844,40.308 22.907,57.912 C-2.622,87.998 -2.255,129.019 2.55,158.144 C9.281,198.809 25.604,240.231 47.334,271.787 C70.933,306.058 99.047,327.019 129.15,332.952 C143.623,371.746 160.871,398.886 179.791,412.514 C169.68,425.737 163.108,445.511 163.108,467.941 L108.41,467.941 L108.41,530 L308.472,530 L308.472,467.941 L253.736,467.941 C253.736,445.511 247.162,425.737 237.052,412.514 C255.964,398.887 273.209,371.748 287.682,332.955 C317.805,327.027 345.928,306.063 369.524,271.784 C391.24,240.234 407.552,198.812 414.274,158.139 C422.991,105.394 408.027,74.525 393.94,57.918 L393.94,57.918 Z" mask="url(#b)"/>
  </g>
</svg>
