<svg xmlns="http://www.w3.org/2000/svg" xmlns:xlink="http://www.w3.org/1999/xlink" width="587" height="575" viewBox="0 0 587 575">
  <defs>
    <polygon id="a" points="586.771 574.94 0 574.94 0 287.651 0 .361 586.771 .361 586.771 574.94"/>
  </defs>
  <g fill="none" fill-rule="evenodd">
    <mask id="b" fill="white">
      <use xlink:href="#a"/>
    </mask>
    <path fill="#EB8B2D" d="M250.565,64.508 C199.679,73.827 152.846,98.27 115.483,135.633 C70.359,180.757 44.07,239.69 40.528,302.902 L64.422,281.578 L84.483,304.057 C87.718,252.154 109.461,203.803 146.557,166.707 C175.571,137.693 211.468,118.063 250.565,109.338 L250.565,175.647 L357.703,88.009 L250.565,0.361 L250.565,64.508 Z M533.057,421.594 C547.337,389.269 554.85,354.026 554.85,317.626 C554.85,248.877 528.08,184.244 479.468,135.633 C449.421,105.586 413.249,83.896 373.772,71.702 L387.444,99.736 L359.582,113.325 C392.772,123.367 423.182,141.494 448.394,166.707 C488.705,207.018 510.906,260.615 510.906,317.626 C510.906,344.662 505.898,370.924 496.345,395.37 L444.133,358.074 L453.181,496.212 L586.771,459.963 L533.057,421.594 Z M456.873,519.728 C411.635,555.551 356.053,575.001 297.475,575.001 C228.727,575.001 164.094,548.229 115.483,499.618 C93.066,477.2 75.301,451.372 62.659,423.307 L0,435.773 L65.05,313.594 L171.913,401.573 L107.167,414.453 C117.229,434.185 130.441,452.428 146.557,468.545 C186.868,508.855 240.466,531.055 297.475,531.055 C347.298,531.055 394.512,514.098 432.532,482.918 L426.997,514.495 L456.873,519.728 L456.873,519.728 Z" mask="url(#b)"/>
  </g>
</svg>
