<svg xmlns="http://www.w3.org/2000/svg" xmlns:xlink="http://www.w3.org/1999/xlink" width="811" height="482" viewBox="0 0 811 482">
  <defs>
    <polygon id="a" points=".192 .11 749.065 .11 749.065 346.116 .192 346.116 .192 .11"/>
    <polygon id="c" points=".677 .11 475.092 .11 475.092 433.597 .677 433.597"/>
  </defs>
  <g fill="none" fill-rule="evenodd">
    <polyline fill="#343534" points="751.658 433.343 755.92 481.999 804.4 477.739 800.152 429.094 751.658 433.343"/>
    <polyline fill="#343534" points="671.904 477.711 720.385 481.972 724.621 433.077 676.14 428.778 671.904 477.711"/>
    <polyline fill="#97CA8D" points="648.321 231.595 614.245 197.695 689.637 122.743 723.663 156.618 648.321 231.595"/>
    <polyline fill="#FAD9C6" points="615.742 196.243 649.805 230.106 606.113 273.572 572.075 239.697 615.742 196.243"/>
    <polyline fill="#50B055" points="800.15 429.374 786.688 276.414 786.688 122.737 689.563 122.737 689.563 276.677 676.138 429.374 724.657 433.597 738.258 293.458 751.644 433.597 800.15 429.374"/>
    <polyline fill="#343534" points="90.637 433.343 94.898 481.999 143.379 477.739 139.131 429.094 90.637 433.343"/>
    <polyline fill="#343534" points="10.883 477.711 59.364 481.972 63.6 433.077 15.119 428.778 10.883 477.711"/>
    <polyline fill="#E77C56" points="166.987 231.595 201.013 197.695 125.671 122.743 91.62 156.618 166.987 231.595"/>
    <polyline fill="#FAD9C6" points="199.554 196.243 165.49 230.106 209.17 273.572 243.221 239.697 199.554 196.243"/>
    <path fill="#DE492A" d="M154.255,429.605 L125.231,124.313 L29.011,124.313 L0,429.605 C0,429.605 37.558,437.234 77.14,437.234 C116.696,437.234 154.255,429.605 154.255,429.605"/>
    <polyline fill="#E77C56" points="108.46 236.795 60.594 241.12 51.62 135.17 99.447 130.884 108.46 236.795"/>
    <polyline fill="#FAD9C6" points="60.436 239.028 108.276 234.704 113.48 296.106 65.652 300.405 60.436 239.028"/>
    <polyline fill="#F6CAB9" points="113.401 294.935 117.448 342.8 69.608 347.124 65.535 299.247 113.401 294.935"/>
    <polyline fill="#97CA8D" points="709.25 237.021 757.228 239.874 762.96 133.711 715.019 130.882 709.25 237.021"/>
    <polyline fill="#FAD9C6" points="757.318 237.786 709.378 234.92 706.047 296.46 753.974 299.289 757.318 237.786"/>
    <g transform="translate(5)">
      <mask id="b" fill="white">
        <use xlink:href="#a"/>
      </mask>
      <polyline fill="#F6CAB9" points="701.087 295.285 698.51 343.25 746.451 346.116 749.065 298.137 701.087 295.285" mask="url(#b)"/>
      <path fill="#F6CAB9" d="M139.714,96.648 C126.126,133.967 84.835,153.211 47.541,139.624 C10.196,126.048 -9.022,84.757 4.54,47.438 C18.128,10.119 59.382,-9.126 96.714,4.475 C134.058,18.038 153.302,59.316 139.714,96.648" mask="url(#b)"/>
    </g>
    <polyline fill="#343534" points="421.125 433.343 425.386 481.999 473.854 477.739 469.619 429.094 421.125 433.343"/>
    <polyline fill="#343534" points="341.371 477.711 389.852 481.972 394.088 433.077 345.607 428.778 341.371 477.711"/>
    <polyline fill="#FCDA88" points="317.785 231.595 283.709 197.695 359.101 122.743 393.128 156.618 317.785 231.595"/>
    <polyline fill="#FAD9C6" points="285.207 196.243 319.271 230.106 275.579 273.572 241.54 239.697 285.207 196.243"/>
    <polyline fill="#FCDA88" points="497.473 231.595 531.499 197.695 456.157 122.743 422.105 156.618 497.473 231.595"/>
    <polyline fill="#FAD9C6" points="530.038 196.243 495.974 230.106 539.654 273.572 573.705 239.697 530.038 196.243"/>
    <g transform="translate(335)">
      <mask id="d" fill="white">
        <use xlink:href="#c"/>
      </mask>
      <polyline fill="#F8C73E" points="134.616 429.374 121.154 276.414 121.154 122.737 24.028 122.737 24.028 276.677 10.604 429.374 59.123 433.597 72.723 293.458 86.11 433.597 134.616 429.374" mask="url(#d)"/>
      <path fill="#F6CAB9" d="M140.198 96.648C126.61 133.967 85.319 153.211 48.025 139.624 10.681 126.048-8.538 84.757 5.025 47.438 18.612 10.119 59.866-9.126 97.198 4.475 134.542 18.038 153.786 59.316 140.198 96.648M470.734 96.648C457.146 133.967 415.855 153.211 378.561 139.624 341.216 126.048 321.998 84.757 335.56 47.438 349.148 10.119 390.401-9.126 427.733 4.475 465.078 18.038 484.322 59.316 470.734 96.648" mask="url(#d)"/>
    </g>
    <polyline fill="#F6CAB9" points="208.355 272.753 242.381 306.616 276.445 272.753 242.381 238.853 208.355 272.753"/>
    <polyline fill="#F6CAB9" points="538.84 272.753 572.865 306.616 606.929 272.753 572.865 238.853 538.84 272.753"/>
  </g>
</svg>
